<svg xmlns="http://www.w3.org/2000/svg" xmlns:xlink="http://www.w3.org/1999/xlink" width="40" zoomAndPan="magnify" viewBox="0 0 30 30.000001" height="40" preserveAspectRatio="xMidYMid meet" version="1.0"><defs><clipPath id="3aa34f2ae8"><path d="M 10.171875 9.570312 L 20.914062 9.570312 L 20.914062 20.308594 L 10.171875 20.308594 Z M 10.171875 9.570312 " clip-rule="nonzero"/></clipPath><clipPath id="9a5b704e3a"><path d="M 15.542969 9.570312 C 12.578125 9.570312 10.171875 11.976562 10.171875 14.941406 C 10.171875 17.90625 12.578125 20.308594 15.542969 20.308594 C 18.507812 20.308594 20.914062 17.90625 20.914062 14.941406 C 20.914062 11.976562 18.507812 9.570312 15.542969 9.570312 Z M 15.542969 9.570312 " clip-rule="nonzero"/></clipPath></defs><g clip-path="url(#3aa34f2ae8)"><g clip-path="url(#9a5b704e3a)"><path stroke-linecap="butt" transform="matrix(0.725806, 0, 0, 0.725806, 10.173266, 9.570587)" fill="none" stroke-linejoin="miter" d="M 7.398257 -0.000378828 C 3.313361 -0.000378828 -0.00191648 3.314899 -0.00191648 7.399795 C -0.00191648 11.484691 3.313361 14.794587 7.398257 14.794587 C 11.483153 14.794587 14.798431 11.484691 14.798431 7.399795 C 14.798431 3.314899 11.483153 -0.000378828 7.398257 -0.000378828 Z M 7.398257 -0.000378828 " stroke="#ff66c4" stroke-width="2" stroke-opacity="1" stroke-miterlimit="4"/></g></g></svg>