<svg xmlns="http://www.w3.org/2000/svg" xmlns:xlink="http://www.w3.org/1999/xlink" width="40" zoomAndPan="magnify" viewBox="0 0 30 30.000001" height="40" preserveAspectRatio="xMidYMid meet" version="1.0"><defs><g/><clipPath id="8c9a7b2e33"><rect x="0" width="13" y="0" height="9"/></clipPath></defs><g transform="matrix(1, 0, 0, 1, 9, 10)"><g clip-path="url(#8c9a7b2e33)"><g fill="#21d7e8" fill-opacity="0.302"><g transform="translate(1.343115, 7.140403)"><g><path d="M 1.765625 -4.25 C 1.972656 -4.25 2.160156 -4.21875 2.328125 -4.15625 C 2.492188 -4.09375 2.632812 -4.007812 2.75 -3.90625 C 2.875 -3.800781 2.96875 -3.671875 3.03125 -3.515625 C 3.101562 -3.367188 3.144531 -3.203125 3.15625 -3.015625 L 2.421875 -3.015625 C 2.421875 -3.191406 2.359375 -3.332031 2.234375 -3.4375 C 2.117188 -3.539062 1.960938 -3.59375 1.765625 -3.59375 C 1.566406 -3.59375 1.40625 -3.535156 1.28125 -3.421875 C 1.164062 -3.304688 1.109375 -3.148438 1.109375 -2.953125 L 1.109375 -1.21875 C 1.109375 -1.03125 1.164062 -0.878906 1.28125 -0.765625 C 1.394531 -0.648438 1.554688 -0.59375 1.765625 -0.59375 C 1.960938 -0.59375 2.117188 -0.644531 2.234375 -0.75 C 2.359375 -0.851562 2.421875 -1 2.421875 -1.1875 L 3.15625 -1.1875 C 3.132812 -0.800781 3 -0.492188 2.75 -0.265625 C 2.507812 -0.046875 2.179688 0.0625 1.765625 0.0625 C 1.554688 0.0625 1.367188 0.03125 1.203125 -0.03125 C 1.035156 -0.09375 0.890625 -0.175781 0.765625 -0.28125 C 0.648438 -0.394531 0.554688 -0.53125 0.484375 -0.6875 C 0.421875 -0.851562 0.390625 -1.03125 0.390625 -1.21875 L 0.390625 -2.953125 C 0.390625 -3.148438 0.421875 -3.328125 0.484375 -3.484375 C 0.554688 -3.640625 0.648438 -3.773438 0.765625 -3.890625 C 0.890625 -4.003906 1.035156 -4.09375 1.203125 -4.15625 C 1.367188 -4.21875 1.554688 -4.25 1.765625 -4.25 Z M 1.765625 -4.25 "/></g></g></g><g fill="#21d7e8" fill-opacity="0.302"><g transform="translate(4.827018, 7.140403)"><g><path d="M 1.75 0.0625 C 1.539062 0.0625 1.347656 0.0351562 1.171875 -0.015625 C 1.003906 -0.078125 0.859375 -0.15625 0.734375 -0.25 C 0.609375 -0.351562 0.507812 -0.476562 0.4375 -0.625 C 0.363281 -0.769531 0.320312 -0.929688 0.3125 -1.109375 L 1.0625 -1.109375 C 1.070312 -0.941406 1.140625 -0.8125 1.265625 -0.71875 C 1.390625 -0.625 1.554688 -0.578125 1.765625 -0.578125 C 1.972656 -0.578125 2.132812 -0.625 2.25 -0.71875 C 2.375 -0.8125 2.4375 -0.941406 2.4375 -1.109375 C 2.4375 -1.253906 2.390625 -1.378906 2.296875 -1.484375 C 2.210938 -1.585938 2.085938 -1.664062 1.921875 -1.71875 L 1.484375 -1.84375 C 0.765625 -2.039062 0.40625 -2.457031 0.40625 -3.09375 C 0.40625 -3.257812 0.4375 -3.414062 0.5 -3.5625 C 0.5625 -3.707031 0.648438 -3.832031 0.765625 -3.9375 C 0.878906 -4.039062 1.019531 -4.117188 1.1875 -4.171875 C 1.351562 -4.222656 1.539062 -4.25 1.75 -4.25 C 2.144531 -4.25 2.460938 -4.144531 2.703125 -3.9375 C 2.953125 -3.738281 3.085938 -3.460938 3.109375 -3.109375 L 2.359375 -3.109375 C 2.359375 -3.265625 2.296875 -3.382812 2.171875 -3.46875 C 2.054688 -3.5625 1.910156 -3.609375 1.734375 -3.609375 C 1.546875 -3.609375 1.394531 -3.5625 1.28125 -3.46875 C 1.175781 -3.382812 1.125 -3.269531 1.125 -3.125 C 1.125 -2.84375 1.296875 -2.65625 1.640625 -2.5625 L 2.09375 -2.421875 C 2.445312 -2.328125 2.710938 -2.171875 2.890625 -1.953125 C 3.078125 -1.734375 3.171875 -1.460938 3.171875 -1.140625 C 3.171875 -0.960938 3.132812 -0.800781 3.0625 -0.65625 C 3 -0.507812 2.90625 -0.378906 2.78125 -0.265625 C 2.65625 -0.160156 2.503906 -0.078125 2.328125 -0.015625 C 2.148438 0.0351562 1.957031 0.0625 1.75 0.0625 Z M 1.75 0.0625 "/></g></g></g><g fill="#21d7e8" fill-opacity="0.302"><g transform="translate(8.310921, 7.140403)"><g><path d="M 0.140625 -4.1875 L 0.890625 -4.1875 L 1.640625 -1.0625 C 1.648438 -1 1.660156 -0.929688 1.671875 -0.859375 C 1.691406 -0.785156 1.703125 -0.722656 1.703125 -0.671875 C 1.710938 -0.609375 1.722656 -0.546875 1.734375 -0.484375 L 1.765625 -0.484375 C 1.765625 -0.546875 1.769531 -0.609375 1.78125 -0.671875 C 1.789062 -0.722656 1.800781 -0.785156 1.8125 -0.859375 C 1.832031 -0.929688 1.847656 -1 1.859375 -1.0625 L 2.609375 -4.1875 L 3.34375 -4.1875 L 2.21875 0 L 1.234375 0 Z M 0.140625 -4.1875 "/></g></g></g><g fill="#21d7e8" fill-opacity="0.502"><g transform="translate(1.057143, 6.916978)"><g><path d="M 1.765625 -4.25 C 1.972656 -4.25 2.160156 -4.21875 2.328125 -4.15625 C 2.492188 -4.09375 2.632812 -4.007812 2.75 -3.90625 C 2.875 -3.800781 2.96875 -3.671875 3.03125 -3.515625 C 3.101562 -3.367188 3.144531 -3.203125 3.15625 -3.015625 L 2.421875 -3.015625 C 2.421875 -3.191406 2.359375 -3.332031 2.234375 -3.4375 C 2.117188 -3.539062 1.960938 -3.59375 1.765625 -3.59375 C 1.566406 -3.59375 1.40625 -3.535156 1.28125 -3.421875 C 1.164062 -3.304688 1.109375 -3.148438 1.109375 -2.953125 L 1.109375 -1.21875 C 1.109375 -1.03125 1.164062 -0.878906 1.28125 -0.765625 C 1.394531 -0.648438 1.554688 -0.59375 1.765625 -0.59375 C 1.960938 -0.59375 2.117188 -0.644531 2.234375 -0.75 C 2.359375 -0.851562 2.421875 -1 2.421875 -1.1875 L 3.15625 -1.1875 C 3.132812 -0.800781 3 -0.492188 2.75 -0.265625 C 2.507812 -0.046875 2.179688 0.0625 1.765625 0.0625 C 1.554688 0.0625 1.367188 0.03125 1.203125 -0.03125 C 1.035156 -0.09375 0.890625 -0.175781 0.765625 -0.28125 C 0.648438 -0.394531 0.554688 -0.53125 0.484375 -0.6875 C 0.421875 -0.851562 0.390625 -1.03125 0.390625 -1.21875 L 0.390625 -2.953125 C 0.390625 -3.148438 0.421875 -3.328125 0.484375 -3.484375 C 0.554688 -3.640625 0.648438 -3.773438 0.765625 -3.890625 C 0.890625 -4.003906 1.035156 -4.09375 1.203125 -4.15625 C 1.367188 -4.21875 1.554688 -4.25 1.765625 -4.25 Z M 1.765625 -4.25 "/></g></g></g><g fill="#21d7e8" fill-opacity="0.502"><g transform="translate(4.541047, 6.916978)"><g><path d="M 1.75 0.0625 C 1.539062 0.0625 1.347656 0.0351562 1.171875 -0.015625 C 1.003906 -0.078125 0.859375 -0.15625 0.734375 -0.25 C 0.609375 -0.351562 0.507812 -0.476562 0.4375 -0.625 C 0.363281 -0.769531 0.320312 -0.929688 0.3125 -1.109375 L 1.0625 -1.109375 C 1.070312 -0.941406 1.140625 -0.8125 1.265625 -0.71875 C 1.390625 -0.625 1.554688 -0.578125 1.765625 -0.578125 C 1.972656 -0.578125 2.132812 -0.625 2.25 -0.71875 C 2.375 -0.8125 2.4375 -0.941406 2.4375 -1.109375 C 2.4375 -1.253906 2.390625 -1.378906 2.296875 -1.484375 C 2.210938 -1.585938 2.085938 -1.664062 1.921875 -1.71875 L 1.484375 -1.84375 C 0.765625 -2.039062 0.40625 -2.457031 0.40625 -3.09375 C 0.40625 -3.257812 0.4375 -3.414062 0.5 -3.5625 C 0.5625 -3.707031 0.648438 -3.832031 0.765625 -3.9375 C 0.878906 -4.039062 1.019531 -4.117188 1.1875 -4.171875 C 1.351562 -4.222656 1.539062 -4.25 1.75 -4.25 C 2.144531 -4.25 2.460938 -4.144531 2.703125 -3.9375 C 2.953125 -3.738281 3.085938 -3.460938 3.109375 -3.109375 L 2.359375 -3.109375 C 2.359375 -3.265625 2.296875 -3.382812 2.171875 -3.46875 C 2.054688 -3.5625 1.910156 -3.609375 1.734375 -3.609375 C 1.546875 -3.609375 1.394531 -3.5625 1.28125 -3.46875 C 1.175781 -3.382812 1.125 -3.269531 1.125 -3.125 C 1.125 -2.84375 1.296875 -2.65625 1.640625 -2.5625 L 2.09375 -2.421875 C 2.445312 -2.328125 2.710938 -2.171875 2.890625 -1.953125 C 3.078125 -1.734375 3.171875 -1.460938 3.171875 -1.140625 C 3.171875 -0.960938 3.132812 -0.800781 3.0625 -0.65625 C 3 -0.507812 2.90625 -0.378906 2.78125 -0.265625 C 2.65625 -0.160156 2.503906 -0.078125 2.328125 -0.015625 C 2.148438 0.0351562 1.957031 0.0625 1.75 0.0625 Z M 1.75 0.0625 "/></g></g></g><g fill="#21d7e8" fill-opacity="0.502"><g transform="translate(8.02495, 6.916978)"><g><path d="M 0.140625 -4.1875 L 0.890625 -4.1875 L 1.640625 -1.0625 C 1.648438 -1 1.660156 -0.929688 1.671875 -0.859375 C 1.691406 -0.785156 1.703125 -0.722656 1.703125 -0.671875 C 1.710938 -0.609375 1.722656 -0.546875 1.734375 -0.484375 L 1.765625 -0.484375 C 1.765625 -0.546875 1.769531 -0.609375 1.78125 -0.671875 C 1.789062 -0.722656 1.800781 -0.785156 1.8125 -0.859375 C 1.832031 -0.929688 1.847656 -1 1.859375 -1.0625 L 2.609375 -4.1875 L 3.34375 -4.1875 L 2.21875 0 L 1.234375 0 Z M 0.140625 -4.1875 "/></g></g></g><g fill="#243ce6" fill-opacity="1"><g transform="translate(0.771171, 6.693552)"><g><path d="M 1.765625 -4.25 C 1.972656 -4.25 2.160156 -4.21875 2.328125 -4.15625 C 2.492188 -4.09375 2.632812 -4.007812 2.75 -3.90625 C 2.875 -3.800781 2.96875 -3.671875 3.03125 -3.515625 C 3.101562 -3.367188 3.144531 -3.203125 3.15625 -3.015625 L 2.421875 -3.015625 C 2.421875 -3.191406 2.359375 -3.332031 2.234375 -3.4375 C 2.117188 -3.539062 1.960938 -3.59375 1.765625 -3.59375 C 1.566406 -3.59375 1.40625 -3.535156 1.28125 -3.421875 C 1.164062 -3.304688 1.109375 -3.148438 1.109375 -2.953125 L 1.109375 -1.21875 C 1.109375 -1.03125 1.164062 -0.878906 1.28125 -0.765625 C 1.394531 -0.648438 1.554688 -0.59375 1.765625 -0.59375 C 1.960938 -0.59375 2.117188 -0.644531 2.234375 -0.75 C 2.359375 -0.851562 2.421875 -1 2.421875 -1.1875 L 3.15625 -1.1875 C 3.132812 -0.800781 3 -0.492188 2.75 -0.265625 C 2.507812 -0.046875 2.179688 0.0625 1.765625 0.0625 C 1.554688 0.0625 1.367188 0.03125 1.203125 -0.03125 C 1.035156 -0.09375 0.890625 -0.175781 0.765625 -0.28125 C 0.648438 -0.394531 0.554688 -0.53125 0.484375 -0.6875 C 0.421875 -0.851562 0.390625 -1.03125 0.390625 -1.21875 L 0.390625 -2.953125 C 0.390625 -3.148438 0.421875 -3.328125 0.484375 -3.484375 C 0.554688 -3.640625 0.648438 -3.773438 0.765625 -3.890625 C 0.890625 -4.003906 1.035156 -4.09375 1.203125 -4.15625 C 1.367188 -4.21875 1.554688 -4.25 1.765625 -4.25 Z M 1.765625 -4.25 "/></g></g></g><g fill="#243ce6" fill-opacity="1"><g transform="translate(4.255074, 6.693552)"><g><path d="M 1.75 0.0625 C 1.539062 0.0625 1.347656 0.0351562 1.171875 -0.015625 C 1.003906 -0.078125 0.859375 -0.15625 0.734375 -0.25 C 0.609375 -0.351562 0.507812 -0.476562 0.4375 -0.625 C 0.363281 -0.769531 0.320312 -0.929688 0.3125 -1.109375 L 1.0625 -1.109375 C 1.070312 -0.941406 1.140625 -0.8125 1.265625 -0.71875 C 1.390625 -0.625 1.554688 -0.578125 1.765625 -0.578125 C 1.972656 -0.578125 2.132812 -0.625 2.25 -0.71875 C 2.375 -0.8125 2.4375 -0.941406 2.4375 -1.109375 C 2.4375 -1.253906 2.390625 -1.378906 2.296875 -1.484375 C 2.210938 -1.585938 2.085938 -1.664062 1.921875 -1.71875 L 1.484375 -1.84375 C 0.765625 -2.039062 0.40625 -2.457031 0.40625 -3.09375 C 0.40625 -3.257812 0.4375 -3.414062 0.5 -3.5625 C 0.5625 -3.707031 0.648438 -3.832031 0.765625 -3.9375 C 0.878906 -4.039062 1.019531 -4.117188 1.1875 -4.171875 C 1.351562 -4.222656 1.539062 -4.25 1.75 -4.25 C 2.144531 -4.25 2.460938 -4.144531 2.703125 -3.9375 C 2.953125 -3.738281 3.085938 -3.460938 3.109375 -3.109375 L 2.359375 -3.109375 C 2.359375 -3.265625 2.296875 -3.382812 2.171875 -3.46875 C 2.054688 -3.5625 1.910156 -3.609375 1.734375 -3.609375 C 1.546875 -3.609375 1.394531 -3.5625 1.28125 -3.46875 C 1.175781 -3.382812 1.125 -3.269531 1.125 -3.125 C 1.125 -2.84375 1.296875 -2.65625 1.640625 -2.5625 L 2.09375 -2.421875 C 2.445312 -2.328125 2.710938 -2.171875 2.890625 -1.953125 C 3.078125 -1.734375 3.171875 -1.460938 3.171875 -1.140625 C 3.171875 -0.960938 3.132812 -0.800781 3.0625 -0.65625 C 3 -0.507812 2.90625 -0.378906 2.78125 -0.265625 C 2.65625 -0.160156 2.503906 -0.078125 2.328125 -0.015625 C 2.148438 0.0351562 1.957031 0.0625 1.75 0.0625 Z M 1.75 0.0625 "/></g></g></g><g fill="#243ce6" fill-opacity="1"><g transform="translate(7.738978, 6.693552)"><g><path d="M 0.140625 -4.1875 L 0.890625 -4.1875 L 1.640625 -1.0625 C 1.648438 -1 1.660156 -0.929688 1.671875 -0.859375 C 1.691406 -0.785156 1.703125 -0.722656 1.703125 -0.671875 C 1.710938 -0.609375 1.722656 -0.546875 1.734375 -0.484375 L 1.765625 -0.484375 C 1.765625 -0.546875 1.769531 -0.609375 1.78125 -0.671875 C 1.789062 -0.722656 1.800781 -0.785156 1.8125 -0.859375 C 1.832031 -0.929688 1.847656 -1 1.859375 -1.0625 L 2.609375 -4.1875 L 3.34375 -4.1875 L 2.21875 0 L 1.234375 0 Z M 0.140625 -4.1875 "/></g></g></g></g></g></svg>