<svg xmlns="http://www.w3.org/2000/svg" xmlns:xlink="http://www.w3.org/1999/xlink" width="40" zoomAndPan="magnify" viewBox="0 0 30 30.000001" height="40" preserveAspectRatio="xMidYMid meet" version="1.0"><defs><g/><clipPath id="52c63049e9"><rect x="0" width="15" y="0" height="9"/></clipPath></defs><g transform="matrix(1, 0, 0, 1, 8, 10)"><g clip-path="url(#52c63049e9)"><g fill="#21d7e8" fill-opacity="0.302"><g transform="translate(1.563942, 7.577783)"><g><path d="M 2.0625 -4.953125 C 2.300781 -4.953125 2.515625 -4.914062 2.703125 -4.84375 C 2.898438 -4.78125 3.066406 -4.6875 3.203125 -4.5625 C 3.347656 -4.4375 3.460938 -4.285156 3.546875 -4.109375 C 3.628906 -3.929688 3.675781 -3.734375 3.6875 -3.515625 L 2.828125 -3.515625 C 2.828125 -3.722656 2.753906 -3.882812 2.609375 -4 C 2.472656 -4.125 2.289062 -4.1875 2.0625 -4.1875 C 1.832031 -4.1875 1.644531 -4.117188 1.5 -3.984375 C 1.363281 -3.859375 1.296875 -3.679688 1.296875 -3.453125 L 1.296875 -1.4375 C 1.296875 -1.195312 1.363281 -1.007812 1.5 -0.875 C 1.632812 -0.75 1.820312 -0.6875 2.0625 -0.6875 C 2.289062 -0.6875 2.472656 -0.75 2.609375 -0.875 C 2.753906 -1 2.828125 -1.164062 2.828125 -1.375 L 3.6875 -1.375 C 3.65625 -0.9375 3.492188 -0.585938 3.203125 -0.328125 C 2.921875 -0.0664062 2.539062 0.0625 2.0625 0.0625 C 1.820312 0.0625 1.601562 0.03125 1.40625 -0.03125 C 1.207031 -0.101562 1.035156 -0.203125 0.890625 -0.328125 C 0.753906 -0.460938 0.644531 -0.625 0.5625 -0.8125 C 0.488281 -1 0.453125 -1.207031 0.453125 -1.4375 L 0.453125 -3.453125 C 0.453125 -3.679688 0.488281 -3.882812 0.5625 -4.0625 C 0.644531 -4.25 0.753906 -4.40625 0.890625 -4.53125 C 1.035156 -4.664062 1.207031 -4.769531 1.40625 -4.84375 C 1.601562 -4.914062 1.820312 -4.953125 2.0625 -4.953125 Z M 2.0625 -4.953125 "/></g></g></g><g fill="#21d7e8" fill-opacity="0.302"><g transform="translate(5.628495, 7.577783)"><g><path d="M 2.03125 0.0625 C 1.789062 0.0625 1.570312 0.03125 1.375 -0.03125 C 1.175781 -0.09375 1.003906 -0.179688 0.859375 -0.296875 C 0.710938 -0.421875 0.597656 -0.566406 0.515625 -0.734375 C 0.429688 -0.898438 0.382812 -1.085938 0.375 -1.296875 L 1.234375 -1.296875 C 1.242188 -1.097656 1.320312 -0.941406 1.46875 -0.828125 C 1.625 -0.722656 1.820312 -0.671875 2.0625 -0.671875 C 2.300781 -0.671875 2.488281 -0.726562 2.625 -0.84375 C 2.769531 -0.957031 2.84375 -1.109375 2.84375 -1.296875 C 2.84375 -1.460938 2.789062 -1.601562 2.6875 -1.71875 C 2.582031 -1.84375 2.4375 -1.9375 2.25 -2 L 1.734375 -2.15625 C 0.890625 -2.382812 0.46875 -2.863281 0.46875 -3.59375 C 0.46875 -3.800781 0.503906 -3.988281 0.578125 -4.15625 C 0.648438 -4.320312 0.753906 -4.460938 0.890625 -4.578125 C 1.023438 -4.703125 1.191406 -4.796875 1.390625 -4.859375 C 1.585938 -4.921875 1.804688 -4.953125 2.046875 -4.953125 C 2.503906 -4.953125 2.875 -4.832031 3.15625 -4.59375 C 3.445312 -4.363281 3.601562 -4.039062 3.625 -3.625 L 2.765625 -3.625 C 2.753906 -3.8125 2.679688 -3.957031 2.546875 -4.0625 C 2.410156 -4.164062 2.238281 -4.21875 2.03125 -4.21875 C 1.8125 -4.21875 1.632812 -4.164062 1.5 -4.0625 C 1.375 -3.957031 1.3125 -3.816406 1.3125 -3.640625 C 1.3125 -3.316406 1.507812 -3.097656 1.90625 -2.984375 L 2.453125 -2.828125 C 2.859375 -2.722656 3.164062 -2.539062 3.375 -2.28125 C 3.59375 -2.03125 3.703125 -1.710938 3.703125 -1.328125 C 3.703125 -1.117188 3.660156 -0.925781 3.578125 -0.75 C 3.492188 -0.582031 3.378906 -0.4375 3.234375 -0.3125 C 3.097656 -0.195312 2.925781 -0.101562 2.71875 -0.03125 C 2.519531 0.03125 2.289062 0.0625 2.03125 0.0625 Z M 2.03125 0.0625 "/></g></g></g><g fill="#21d7e8" fill-opacity="0.302"><g transform="translate(9.693049, 7.577783)"><g><path d="M 0.15625 -4.875 L 1.03125 -4.875 L 1.90625 -1.234375 C 1.925781 -1.160156 1.941406 -1.082031 1.953125 -1 C 1.972656 -0.914062 1.988281 -0.84375 2 -0.78125 C 2 -0.707031 2.003906 -0.632812 2.015625 -0.5625 L 2.0625 -0.5625 C 2.0625 -0.632812 2.066406 -0.707031 2.078125 -0.78125 C 2.085938 -0.84375 2.097656 -0.914062 2.109375 -1 C 2.128906 -1.082031 2.148438 -1.160156 2.171875 -1.234375 L 3.046875 -4.875 L 3.90625 -4.875 L 2.59375 0 L 1.4375 0 Z M 0.15625 -4.875 "/></g></g></g><g fill="#21d7e8" fill-opacity="0.502"><g transform="translate(1.230308, 7.317119)"><g><path d="M 2.0625 -4.953125 C 2.300781 -4.953125 2.515625 -4.914062 2.703125 -4.84375 C 2.898438 -4.78125 3.066406 -4.6875 3.203125 -4.5625 C 3.347656 -4.4375 3.460938 -4.285156 3.546875 -4.109375 C 3.628906 -3.929688 3.675781 -3.734375 3.6875 -3.515625 L 2.828125 -3.515625 C 2.828125 -3.722656 2.753906 -3.882812 2.609375 -4 C 2.472656 -4.125 2.289062 -4.1875 2.0625 -4.1875 C 1.832031 -4.1875 1.644531 -4.117188 1.5 -3.984375 C 1.363281 -3.859375 1.296875 -3.679688 1.296875 -3.453125 L 1.296875 -1.4375 C 1.296875 -1.195312 1.363281 -1.007812 1.5 -0.875 C 1.632812 -0.75 1.820312 -0.6875 2.0625 -0.6875 C 2.289062 -0.6875 2.472656 -0.75 2.609375 -0.875 C 2.753906 -1 2.828125 -1.164062 2.828125 -1.375 L 3.6875 -1.375 C 3.65625 -0.9375 3.492188 -0.585938 3.203125 -0.328125 C 2.921875 -0.0664062 2.539062 0.0625 2.0625 0.0625 C 1.820312 0.0625 1.601562 0.03125 1.40625 -0.03125 C 1.207031 -0.101562 1.035156 -0.203125 0.890625 -0.328125 C 0.753906 -0.460938 0.644531 -0.625 0.5625 -0.8125 C 0.488281 -1 0.453125 -1.207031 0.453125 -1.4375 L 0.453125 -3.453125 C 0.453125 -3.679688 0.488281 -3.882812 0.5625 -4.0625 C 0.644531 -4.25 0.753906 -4.40625 0.890625 -4.53125 C 1.035156 -4.664062 1.207031 -4.769531 1.40625 -4.84375 C 1.601562 -4.914062 1.820312 -4.953125 2.0625 -4.953125 Z M 2.0625 -4.953125 "/></g></g></g><g fill="#21d7e8" fill-opacity="0.502"><g transform="translate(5.294862, 7.317119)"><g><path d="M 2.03125 0.0625 C 1.789062 0.0625 1.570312 0.03125 1.375 -0.03125 C 1.175781 -0.09375 1.003906 -0.179688 0.859375 -0.296875 C 0.710938 -0.421875 0.597656 -0.566406 0.515625 -0.734375 C 0.429688 -0.898438 0.382812 -1.085938 0.375 -1.296875 L 1.234375 -1.296875 C 1.242188 -1.097656 1.320312 -0.941406 1.46875 -0.828125 C 1.625 -0.722656 1.820312 -0.671875 2.0625 -0.671875 C 2.300781 -0.671875 2.488281 -0.726562 2.625 -0.84375 C 2.769531 -0.957031 2.84375 -1.109375 2.84375 -1.296875 C 2.84375 -1.460938 2.789062 -1.601562 2.6875 -1.71875 C 2.582031 -1.84375 2.4375 -1.9375 2.25 -2 L 1.734375 -2.15625 C 0.890625 -2.382812 0.46875 -2.863281 0.46875 -3.59375 C 0.46875 -3.800781 0.503906 -3.988281 0.578125 -4.15625 C 0.648438 -4.320312 0.753906 -4.460938 0.890625 -4.578125 C 1.023438 -4.703125 1.191406 -4.796875 1.390625 -4.859375 C 1.585938 -4.921875 1.804688 -4.953125 2.046875 -4.953125 C 2.503906 -4.953125 2.875 -4.832031 3.15625 -4.59375 C 3.445312 -4.363281 3.601562 -4.039062 3.625 -3.625 L 2.765625 -3.625 C 2.753906 -3.8125 2.679688 -3.957031 2.546875 -4.0625 C 2.410156 -4.164062 2.238281 -4.21875 2.03125 -4.21875 C 1.8125 -4.21875 1.632812 -4.164062 1.5 -4.0625 C 1.375 -3.957031 1.3125 -3.816406 1.3125 -3.640625 C 1.3125 -3.316406 1.507812 -3.097656 1.90625 -2.984375 L 2.453125 -2.828125 C 2.859375 -2.722656 3.164062 -2.539062 3.375 -2.28125 C 3.59375 -2.03125 3.703125 -1.710938 3.703125 -1.328125 C 3.703125 -1.117188 3.660156 -0.925781 3.578125 -0.75 C 3.492188 -0.582031 3.378906 -0.4375 3.234375 -0.3125 C 3.097656 -0.195312 2.925781 -0.101562 2.71875 -0.03125 C 2.519531 0.03125 2.289062 0.0625 2.03125 0.0625 Z M 2.03125 0.0625 "/></g></g></g><g fill="#21d7e8" fill-opacity="0.502"><g transform="translate(9.359415, 7.317119)"><g><path d="M 0.15625 -4.875 L 1.03125 -4.875 L 1.90625 -1.234375 C 1.925781 -1.160156 1.941406 -1.082031 1.953125 -1 C 1.972656 -0.914062 1.988281 -0.84375 2 -0.78125 C 2 -0.707031 2.003906 -0.632812 2.015625 -0.5625 L 2.0625 -0.5625 C 2.0625 -0.632812 2.066406 -0.707031 2.078125 -0.78125 C 2.085938 -0.84375 2.097656 -0.914062 2.109375 -1 C 2.128906 -1.082031 2.148438 -1.160156 2.171875 -1.234375 L 3.046875 -4.875 L 3.90625 -4.875 L 2.59375 0 L 1.4375 0 Z M 0.15625 -4.875 "/></g></g></g><g fill="#ffffff" fill-opacity="1"><g transform="translate(0.896674, 7.056456)"><g><path d="M 2.0625 -4.953125 C 2.300781 -4.953125 2.515625 -4.914062 2.703125 -4.84375 C 2.898438 -4.78125 3.066406 -4.6875 3.203125 -4.5625 C 3.347656 -4.4375 3.460938 -4.285156 3.546875 -4.109375 C 3.628906 -3.929688 3.675781 -3.734375 3.6875 -3.515625 L 2.828125 -3.515625 C 2.828125 -3.722656 2.753906 -3.882812 2.609375 -4 C 2.472656 -4.125 2.289062 -4.1875 2.0625 -4.1875 C 1.832031 -4.1875 1.644531 -4.117188 1.5 -3.984375 C 1.363281 -3.859375 1.296875 -3.679688 1.296875 -3.453125 L 1.296875 -1.4375 C 1.296875 -1.195312 1.363281 -1.007812 1.5 -0.875 C 1.632812 -0.75 1.820312 -0.6875 2.0625 -0.6875 C 2.289062 -0.6875 2.472656 -0.75 2.609375 -0.875 C 2.753906 -1 2.828125 -1.164062 2.828125 -1.375 L 3.6875 -1.375 C 3.65625 -0.9375 3.492188 -0.585938 3.203125 -0.328125 C 2.921875 -0.0664062 2.539062 0.0625 2.0625 0.0625 C 1.820312 0.0625 1.601562 0.03125 1.40625 -0.03125 C 1.207031 -0.101562 1.035156 -0.203125 0.890625 -0.328125 C 0.753906 -0.460938 0.644531 -0.625 0.5625 -0.8125 C 0.488281 -1 0.453125 -1.207031 0.453125 -1.4375 L 0.453125 -3.453125 C 0.453125 -3.679688 0.488281 -3.882812 0.5625 -4.0625 C 0.644531 -4.25 0.753906 -4.40625 0.890625 -4.53125 C 1.035156 -4.664062 1.207031 -4.769531 1.40625 -4.84375 C 1.601562 -4.914062 1.820312 -4.953125 2.0625 -4.953125 Z M 2.0625 -4.953125 "/></g></g></g><g fill="#ffffff" fill-opacity="1"><g transform="translate(4.961227, 7.056456)"><g><path d="M 2.03125 0.0625 C 1.789062 0.0625 1.570312 0.03125 1.375 -0.03125 C 1.175781 -0.09375 1.003906 -0.179688 0.859375 -0.296875 C 0.710938 -0.421875 0.597656 -0.566406 0.515625 -0.734375 C 0.429688 -0.898438 0.382812 -1.085938 0.375 -1.296875 L 1.234375 -1.296875 C 1.242188 -1.097656 1.320312 -0.941406 1.46875 -0.828125 C 1.625 -0.722656 1.820312 -0.671875 2.0625 -0.671875 C 2.300781 -0.671875 2.488281 -0.726562 2.625 -0.84375 C 2.769531 -0.957031 2.84375 -1.109375 2.84375 -1.296875 C 2.84375 -1.460938 2.789062 -1.601562 2.6875 -1.71875 C 2.582031 -1.84375 2.4375 -1.9375 2.25 -2 L 1.734375 -2.15625 C 0.890625 -2.382812 0.46875 -2.863281 0.46875 -3.59375 C 0.46875 -3.800781 0.503906 -3.988281 0.578125 -4.15625 C 0.648438 -4.320312 0.753906 -4.460938 0.890625 -4.578125 C 1.023438 -4.703125 1.191406 -4.796875 1.390625 -4.859375 C 1.585938 -4.921875 1.804688 -4.953125 2.046875 -4.953125 C 2.503906 -4.953125 2.875 -4.832031 3.15625 -4.59375 C 3.445312 -4.363281 3.601562 -4.039062 3.625 -3.625 L 2.765625 -3.625 C 2.753906 -3.8125 2.679688 -3.957031 2.546875 -4.0625 C 2.410156 -4.164062 2.238281 -4.21875 2.03125 -4.21875 C 1.8125 -4.21875 1.632812 -4.164062 1.5 -4.0625 C 1.375 -3.957031 1.3125 -3.816406 1.3125 -3.640625 C 1.3125 -3.316406 1.507812 -3.097656 1.90625 -2.984375 L 2.453125 -2.828125 C 2.859375 -2.722656 3.164062 -2.539062 3.375 -2.28125 C 3.59375 -2.03125 3.703125 -1.710938 3.703125 -1.328125 C 3.703125 -1.117188 3.660156 -0.925781 3.578125 -0.75 C 3.492188 -0.582031 3.378906 -0.4375 3.234375 -0.3125 C 3.097656 -0.195312 2.925781 -0.101562 2.71875 -0.03125 C 2.519531 0.03125 2.289062 0.0625 2.03125 0.0625 Z M 2.03125 0.0625 "/></g></g></g><g fill="#ffffff" fill-opacity="1"><g transform="translate(9.025781, 7.056456)"><g><path d="M 0.15625 -4.875 L 1.03125 -4.875 L 1.90625 -1.234375 C 1.925781 -1.160156 1.941406 -1.082031 1.953125 -1 C 1.972656 -0.914062 1.988281 -0.84375 2 -0.78125 C 2 -0.707031 2.003906 -0.632812 2.015625 -0.5625 L 2.0625 -0.5625 C 2.0625 -0.632812 2.066406 -0.707031 2.078125 -0.78125 C 2.085938 -0.84375 2.097656 -0.914062 2.109375 -1 C 2.128906 -1.082031 2.148438 -1.160156 2.171875 -1.234375 L 3.046875 -4.875 L 3.90625 -4.875 L 2.59375 0 L 1.4375 0 Z M 0.15625 -4.875 "/></g></g></g></g></g></svg>