<svg xmlns="http://www.w3.org/2000/svg" xmlns:xlink="http://www.w3.org/1999/xlink" width="40" zoomAndPan="magnify" viewBox="0 0 30 30.000001" height="40" preserveAspectRatio="xMidYMid meet" version="1.0"><defs><clipPath id="721df69187"><path d="M 7 8.953125 L 22.917969 8.953125 L 22.917969 16 L 7 16 Z M 7 8.953125 " clip-rule="nonzero"/></clipPath><clipPath id="180cbde330"><path d="M 6.949219 10 L 22.917969 10 L 22.917969 19.839844 L 6.949219 19.839844 Z M 6.949219 10 " clip-rule="nonzero"/></clipPath></defs><g clip-path="url(#721df69187)"><path fill="#ffffff" d="M 15 15.425781 C 15.671875 15.375 19.285156 12.402344 22.496094 9.46875 C 22.167969 9.152344 21.726562 8.957031 21.234375 8.957031 L 8.761719 8.957031 C 8.257812 8.957031 7.800781 9.164062 7.472656 9.496094 C 10.691406 12.410156 14.324219 15.378906 15 15.425781 " fill-opacity="1" fill-rule="nonzero"/></g><g clip-path="url(#180cbde330)"><path fill="#ffffff" d="M 19.730469 13.003906 C 15.886719 16.257812 15.265625 16.257812 14.996094 16.257812 C 14.730469 16.257812 14.105469 16.257812 10.261719 13.03125 C 8.917969 11.902344 7.640625 10.765625 7.035156 10.222656 C 6.980469 10.394531 6.949219 10.578125 6.949219 10.769531 L 6.949219 18.265625 C 6.949219 19.265625 7.757812 20.074219 8.757812 20.074219 L 21.234375 20.074219 C 22.234375 20.074219 23.042969 19.265625 23.042969 18.265625 L 23.042969 10.765625 C 23.042969 10.5625 23.007812 10.367188 22.945312 10.183594 C 22.335938 10.738281 21.066406 11.875 19.730469 13.003906 " fill-opacity="1" fill-rule="nonzero"/></g></svg>