<svg xmlns="http://www.w3.org/2000/svg" xmlns:xlink="http://www.w3.org/1999/xlink" width="40" zoomAndPan="magnify" viewBox="0 0 30 30.000001" height="40" preserveAspectRatio="xMidYMid meet" version="1.0"><defs><clipPath id="52fd82865b"><path d="M 9.371094 9.472656 L 18.078125 9.472656 L 18.078125 21.8125 L 9.371094 21.8125 Z M 9.371094 9.472656 " clip-rule="nonzero"/></clipPath></defs><g clip-path="url(#52fd82865b)"><path fill="#21d7e8" d="M 18.097656 11.050781 L 13.816406 9.476562 L 9.527344 11.050781 L 9.371094 11.109375 L 9.371094 20.046875 L 13.652344 21.597656 L 13.816406 21.65625 L 13.980469 21.597656 L 18.261719 20.046875 L 18.261719 11.113281 Z M 17.933594 13.984375 L 17.617188 14.097656 L 13.980469 15.417969 L 13.980469 12.898438 L 17.933594 11.46875 Z M 13.980469 15.765625 L 17.933594 14.339844 L 17.933594 16.945312 L 13.980469 18.378906 Z M 13.816406 9.828125 L 17.617188 11.226562 L 13.816406 12.605469 L 11.789062 11.871094 L 10.007812 11.226562 Z M 12.515625 12.484375 L 13.652344 12.898438 L 13.652344 15.417969 L 11.789062 14.742188 L 10.007812 14.09375 L 9.699219 13.984375 L 9.699219 11.464844 Z M 13.652344 18.378906 L 9.699219 16.945312 L 9.699219 14.332031 L 12.515625 15.355469 L 13.652344 15.765625 Z M 13.652344 21.246094 L 9.699219 19.8125 L 9.699219 17.296875 L 13.652344 18.730469 Z M 17.933594 19.8125 L 13.980469 21.246094 L 13.980469 18.730469 L 17.933594 17.296875 Z M 17.933594 19.8125 " fill-opacity="1" fill-rule="nonzero"/></g></svg>