<svg xmlns="http://www.w3.org/2000/svg" xmlns:xlink="http://www.w3.org/1999/xlink" width="40" zoomAndPan="magnify" viewBox="0 0 30 30.000001" height="40" preserveAspectRatio="xMidYMid meet" version="1.0"><defs><clipPath id="58f3bf9a82"><path d="M 7.34375 6.859375 L 22.585938 6.859375 L 22.585938 22.101562 L 7.34375 22.101562 Z M 7.34375 6.859375 " clip-rule="nonzero"/></clipPath><clipPath id="bf540dcb12"><path d="M 11 9 L 19 9 L 19 22.101562 L 11 22.101562 Z M 11 9 " clip-rule="nonzero"/></clipPath></defs><g clip-path="url(#58f3bf9a82)"><path fill="#ffffff" d="M 22.65625 14.515625 C 22.65625 10.285156 19.226562 6.859375 15 6.859375 C 10.769531 6.859375 7.34375 10.285156 7.34375 14.515625 C 7.34375 18.105469 9.816406 21.117188 13.148438 21.945312 L 13.148438 16.855469 L 11.570312 16.855469 L 11.570312 14.515625 L 13.148438 14.515625 L 13.148438 13.507812 C 13.148438 10.902344 14.328125 9.695312 16.886719 9.695312 C 17.371094 9.695312 18.207031 9.789062 18.550781 9.882812 L 18.550781 12.003906 C 18.371094 11.984375 18.054688 11.976562 17.667969 11.976562 C 16.410156 11.976562 15.925781 12.449219 15.925781 13.6875 L 15.925781 14.515625 L 18.425781 14.515625 L 17.996094 16.855469 L 15.925781 16.855469 L 15.925781 22.113281 C 19.71875 21.65625 22.65625 18.429688 22.65625 14.515625 Z M 22.65625 14.515625 " fill-opacity="1" fill-rule="nonzero"/></g><g clip-path="url(#bf540dcb12)"><path fill="#2022a1" d="M 17.996094 16.855469 L 18.425781 14.515625 L 15.925781 14.515625 L 15.925781 13.6875 C 15.925781 12.449219 16.410156 11.976562 17.667969 11.976562 C 18.058594 11.976562 18.371094 11.984375 18.550781 12.003906 L 18.550781 9.882812 C 18.210938 9.789062 17.371094 9.695312 16.886719 9.695312 C 14.328125 9.695312 13.148438 10.902344 13.148438 13.507812 L 13.148438 14.515625 L 11.570312 14.515625 L 11.570312 16.855469 L 13.148438 16.855469 L 13.148438 21.945312 C 13.742188 22.09375 14.363281 22.171875 15 22.171875 C 15.3125 22.171875 15.625 22.152344 15.925781 22.117188 L 15.925781 16.855469 L 18 16.855469 Z M 17.996094 16.855469 " fill-opacity="1" fill-rule="nonzero"/></g></svg>