<svg xmlns="http://www.w3.org/2000/svg" xmlns:xlink="http://www.w3.org/1999/xlink" width="40" zoomAndPan="magnify" viewBox="0 0 30 30.000001" height="40" preserveAspectRatio="xMidYMid meet" version="1.0"><defs><g/><clipPath id="1a32336c1b"><path d="M 12 9 L 15.546875 9 L 15.546875 14 L 12 14 Z M 12 9 " clip-rule="nonzero"/></clipPath><clipPath id="29ed0a56a3"><rect x="0" width="16" y="0" height="15"/></clipPath></defs><g transform="matrix(1, 0, 0, 1, 7, 7)"><g clip-path="url(#29ed0a56a3)"><g fill="#21d7e8" fill-opacity="0.302"><g transform="translate(3.343115, 6.995239)"><g><path d="M 0.34375 -2.015625 C 0.34375 -2.203125 0.367188 -2.367188 0.421875 -2.515625 C 0.472656 -2.671875 0.546875 -2.800781 0.640625 -2.90625 C 0.734375 -3.019531 0.847656 -3.101562 0.984375 -3.15625 C 1.117188 -3.21875 1.269531 -3.25 1.4375 -3.25 C 1.675781 -3.25 1.875 -3.191406 2.03125 -3.078125 C 2.1875 -2.960938 2.285156 -2.804688 2.328125 -2.609375 L 2.359375 -2.609375 L 2.359375 -3.203125 L 3.0625 -3.203125 L 3.0625 -0.203125 C 3.0625 -0.0234375 3.03125 0.132812 2.96875 0.28125 C 2.90625 0.425781 2.816406 0.546875 2.703125 0.640625 C 2.585938 0.742188 2.445312 0.820312 2.28125 0.875 C 2.113281 0.925781 1.929688 0.953125 1.734375 0.953125 L 0.875 0.953125 L 0.875 0.359375 L 1.734375 0.359375 C 1.921875 0.359375 2.066406 0.304688 2.171875 0.203125 C 2.285156 0.109375 2.34375 -0.0234375 2.34375 -0.203125 L 2.34375 -0.265625 L 2.359375 -0.90625 L 2.328125 -0.90625 C 2.285156 -0.707031 2.1875 -0.550781 2.03125 -0.4375 C 1.875 -0.320312 1.675781 -0.265625 1.4375 -0.265625 C 1.269531 -0.265625 1.117188 -0.289062 0.984375 -0.34375 C 0.847656 -0.40625 0.734375 -0.488281 0.640625 -0.59375 C 0.546875 -0.707031 0.472656 -0.835938 0.421875 -0.984375 C 0.367188 -1.140625 0.34375 -1.3125 0.34375 -1.5 Z M 1.0625 -1.515625 C 1.0625 -1.316406 1.117188 -1.160156 1.234375 -1.046875 C 1.347656 -0.941406 1.503906 -0.890625 1.703125 -0.890625 C 1.898438 -0.890625 2.054688 -0.941406 2.171875 -1.046875 C 2.285156 -1.160156 2.34375 -1.316406 2.34375 -1.515625 L 2.34375 -2 C 2.34375 -2.195312 2.285156 -2.347656 2.171875 -2.453125 C 2.054688 -2.566406 1.898438 -2.625 1.703125 -2.625 C 1.503906 -2.625 1.347656 -2.566406 1.234375 -2.453125 C 1.117188 -2.347656 1.0625 -2.195312 1.0625 -2 Z M 1.0625 -1.515625 "/></g></g></g><g fill="#21d7e8" fill-opacity="0.302"><g transform="translate(6.827018, 6.995239)"><g><path d="M 1.75 0.0625 C 1.539062 0.0625 1.347656 0.0273438 1.171875 -0.03125 C 0.992188 -0.09375 0.84375 -0.175781 0.71875 -0.28125 C 0.601562 -0.394531 0.515625 -0.523438 0.453125 -0.671875 C 0.390625 -0.828125 0.359375 -1.003906 0.359375 -1.203125 L 0.359375 -2 C 0.359375 -2.195312 0.390625 -2.367188 0.453125 -2.515625 C 0.515625 -2.671875 0.601562 -2.800781 0.71875 -2.90625 C 0.84375 -3.019531 0.992188 -3.101562 1.171875 -3.15625 C 1.347656 -3.21875 1.539062 -3.25 1.75 -3.25 C 1.957031 -3.25 2.144531 -3.21875 2.3125 -3.15625 C 2.476562 -3.101562 2.617188 -3.019531 2.734375 -2.90625 C 2.859375 -2.800781 2.953125 -2.671875 3.015625 -2.515625 C 3.085938 -2.359375 3.125 -2.1875 3.125 -2 L 3.125 -1.421875 L 1.078125 -1.421875 L 1.078125 -1.203125 C 1.078125 -0.992188 1.132812 -0.828125 1.25 -0.703125 C 1.375 -0.585938 1.539062 -0.53125 1.75 -0.53125 C 1.90625 -0.53125 2.035156 -0.550781 2.140625 -0.59375 C 2.253906 -0.644531 2.335938 -0.71875 2.390625 -0.8125 L 3.09375 -0.8125 C 3.0625 -0.675781 3.003906 -0.554688 2.921875 -0.453125 C 2.835938 -0.347656 2.738281 -0.253906 2.625 -0.171875 C 2.507812 -0.0976562 2.375 -0.0390625 2.21875 0 C 2.070312 0.0390625 1.914062 0.0625 1.75 0.0625 Z M 2.40625 -1.90625 L 2.40625 -2 C 2.40625 -2.207031 2.347656 -2.367188 2.234375 -2.484375 C 2.117188 -2.609375 1.957031 -2.671875 1.75 -2.671875 C 1.539062 -2.671875 1.375 -2.609375 1.25 -2.484375 C 1.132812 -2.367188 1.078125 -2.207031 1.078125 -2 L 1.078125 -1.90625 Z M 2.40625 -1.90625 "/></g></g></g><g fill="#21d7e8" fill-opacity="0.302"><g transform="translate(10.310921, 6.995239)"><g><path d="M 1.078125 -1.203125 C 1.078125 -1.015625 1.132812 -0.863281 1.25 -0.75 C 1.375 -0.632812 1.539062 -0.578125 1.75 -0.578125 C 1.945312 -0.578125 2.101562 -0.632812 2.21875 -0.75 C 2.34375 -0.863281 2.40625 -1.015625 2.40625 -1.203125 L 2.40625 -2 C 2.40625 -2.1875 2.34375 -2.335938 2.21875 -2.453125 C 2.101562 -2.566406 1.945312 -2.625 1.75 -2.625 C 1.539062 -2.625 1.375 -2.566406 1.25 -2.453125 C 1.132812 -2.335938 1.078125 -2.1875 1.078125 -2 Z M 0.359375 -2 C 0.359375 -2.1875 0.390625 -2.359375 0.453125 -2.515625 C 0.515625 -2.671875 0.609375 -2.800781 0.734375 -2.90625 C 0.859375 -3.019531 1.003906 -3.101562 1.171875 -3.15625 C 1.347656 -3.21875 1.539062 -3.25 1.75 -3.25 C 1.957031 -3.25 2.144531 -3.21875 2.3125 -3.15625 C 2.476562 -3.101562 2.625 -3.019531 2.75 -2.90625 C 2.875 -2.800781 2.96875 -2.671875 3.03125 -2.515625 C 3.101562 -2.359375 3.140625 -2.1875 3.140625 -2 L 3.140625 -1.203125 C 3.140625 -1.015625 3.101562 -0.84375 3.03125 -0.6875 C 2.96875 -0.53125 2.875 -0.394531 2.75 -0.28125 C 2.632812 -0.175781 2.488281 -0.09375 2.3125 -0.03125 C 2.144531 0.0273438 1.957031 0.0625 1.75 0.0625 C 1.539062 0.0625 1.347656 0.0273438 1.171875 -0.03125 C 1.003906 -0.09375 0.859375 -0.175781 0.734375 -0.28125 C 0.609375 -0.394531 0.515625 -0.53125 0.453125 -0.6875 C 0.390625 -0.84375 0.359375 -1.015625 0.359375 -1.203125 Z M 0.359375 -2 "/></g></g></g><g fill="#21d7e8" fill-opacity="0.502"><g transform="translate(3.057143, 6.771813)"><g><path d="M 0.34375 -2.015625 C 0.34375 -2.203125 0.367188 -2.367188 0.421875 -2.515625 C 0.472656 -2.671875 0.546875 -2.800781 0.640625 -2.90625 C 0.734375 -3.019531 0.847656 -3.101562 0.984375 -3.15625 C 1.117188 -3.21875 1.269531 -3.25 1.4375 -3.25 C 1.675781 -3.25 1.875 -3.191406 2.03125 -3.078125 C 2.1875 -2.960938 2.285156 -2.804688 2.328125 -2.609375 L 2.359375 -2.609375 L 2.359375 -3.203125 L 3.0625 -3.203125 L 3.0625 -0.203125 C 3.0625 -0.0234375 3.03125 0.132812 2.96875 0.28125 C 2.90625 0.425781 2.816406 0.546875 2.703125 0.640625 C 2.585938 0.742188 2.445312 0.820312 2.28125 0.875 C 2.113281 0.925781 1.929688 0.953125 1.734375 0.953125 L 0.875 0.953125 L 0.875 0.359375 L 1.734375 0.359375 C 1.921875 0.359375 2.066406 0.304688 2.171875 0.203125 C 2.285156 0.109375 2.34375 -0.0234375 2.34375 -0.203125 L 2.34375 -0.265625 L 2.359375 -0.90625 L 2.328125 -0.90625 C 2.285156 -0.707031 2.1875 -0.550781 2.03125 -0.4375 C 1.875 -0.320312 1.675781 -0.265625 1.4375 -0.265625 C 1.269531 -0.265625 1.117188 -0.289062 0.984375 -0.34375 C 0.847656 -0.40625 0.734375 -0.488281 0.640625 -0.59375 C 0.546875 -0.707031 0.472656 -0.835938 0.421875 -0.984375 C 0.367188 -1.140625 0.34375 -1.3125 0.34375 -1.5 Z M 1.0625 -1.515625 C 1.0625 -1.316406 1.117188 -1.160156 1.234375 -1.046875 C 1.347656 -0.941406 1.503906 -0.890625 1.703125 -0.890625 C 1.898438 -0.890625 2.054688 -0.941406 2.171875 -1.046875 C 2.285156 -1.160156 2.34375 -1.316406 2.34375 -1.515625 L 2.34375 -2 C 2.34375 -2.195312 2.285156 -2.347656 2.171875 -2.453125 C 2.054688 -2.566406 1.898438 -2.625 1.703125 -2.625 C 1.503906 -2.625 1.347656 -2.566406 1.234375 -2.453125 C 1.117188 -2.347656 1.0625 -2.195312 1.0625 -2 Z M 1.0625 -1.515625 "/></g></g></g><g fill="#21d7e8" fill-opacity="0.502"><g transform="translate(6.541047, 6.771813)"><g><path d="M 1.75 0.0625 C 1.539062 0.0625 1.347656 0.0273438 1.171875 -0.03125 C 0.992188 -0.09375 0.84375 -0.175781 0.71875 -0.28125 C 0.601562 -0.394531 0.515625 -0.523438 0.453125 -0.671875 C 0.390625 -0.828125 0.359375 -1.003906 0.359375 -1.203125 L 0.359375 -2 C 0.359375 -2.195312 0.390625 -2.367188 0.453125 -2.515625 C 0.515625 -2.671875 0.601562 -2.800781 0.71875 -2.90625 C 0.84375 -3.019531 0.992188 -3.101562 1.171875 -3.15625 C 1.347656 -3.21875 1.539062 -3.25 1.75 -3.25 C 1.957031 -3.25 2.144531 -3.21875 2.3125 -3.15625 C 2.476562 -3.101562 2.617188 -3.019531 2.734375 -2.90625 C 2.859375 -2.800781 2.953125 -2.671875 3.015625 -2.515625 C 3.085938 -2.359375 3.125 -2.1875 3.125 -2 L 3.125 -1.421875 L 1.078125 -1.421875 L 1.078125 -1.203125 C 1.078125 -0.992188 1.132812 -0.828125 1.25 -0.703125 C 1.375 -0.585938 1.539062 -0.53125 1.75 -0.53125 C 1.90625 -0.53125 2.035156 -0.550781 2.140625 -0.59375 C 2.253906 -0.644531 2.335938 -0.71875 2.390625 -0.8125 L 3.09375 -0.8125 C 3.0625 -0.675781 3.003906 -0.554688 2.921875 -0.453125 C 2.835938 -0.347656 2.738281 -0.253906 2.625 -0.171875 C 2.507812 -0.0976562 2.375 -0.0390625 2.21875 0 C 2.070312 0.0390625 1.914062 0.0625 1.75 0.0625 Z M 2.40625 -1.90625 L 2.40625 -2 C 2.40625 -2.207031 2.347656 -2.367188 2.234375 -2.484375 C 2.117188 -2.609375 1.957031 -2.671875 1.75 -2.671875 C 1.539062 -2.671875 1.375 -2.609375 1.25 -2.484375 C 1.132812 -2.367188 1.078125 -2.207031 1.078125 -2 L 1.078125 -1.90625 Z M 2.40625 -1.90625 "/></g></g></g><g fill="#21d7e8" fill-opacity="0.502"><g transform="translate(10.02495, 6.771813)"><g><path d="M 1.078125 -1.203125 C 1.078125 -1.015625 1.132812 -0.863281 1.25 -0.75 C 1.375 -0.632812 1.539062 -0.578125 1.75 -0.578125 C 1.945312 -0.578125 2.101562 -0.632812 2.21875 -0.75 C 2.34375 -0.863281 2.40625 -1.015625 2.40625 -1.203125 L 2.40625 -2 C 2.40625 -2.1875 2.34375 -2.335938 2.21875 -2.453125 C 2.101562 -2.566406 1.945312 -2.625 1.75 -2.625 C 1.539062 -2.625 1.375 -2.566406 1.25 -2.453125 C 1.132812 -2.335938 1.078125 -2.1875 1.078125 -2 Z M 0.359375 -2 C 0.359375 -2.1875 0.390625 -2.359375 0.453125 -2.515625 C 0.515625 -2.671875 0.609375 -2.800781 0.734375 -2.90625 C 0.859375 -3.019531 1.003906 -3.101562 1.171875 -3.15625 C 1.347656 -3.21875 1.539062 -3.25 1.75 -3.25 C 1.957031 -3.25 2.144531 -3.21875 2.3125 -3.15625 C 2.476562 -3.101562 2.625 -3.019531 2.75 -2.90625 C 2.875 -2.800781 2.96875 -2.671875 3.03125 -2.515625 C 3.101562 -2.359375 3.140625 -2.1875 3.140625 -2 L 3.140625 -1.203125 C 3.140625 -1.015625 3.101562 -0.84375 3.03125 -0.6875 C 2.96875 -0.53125 2.875 -0.394531 2.75 -0.28125 C 2.632812 -0.175781 2.488281 -0.09375 2.3125 -0.03125 C 2.144531 0.0273438 1.957031 0.0625 1.75 0.0625 C 1.539062 0.0625 1.347656 0.0273438 1.171875 -0.03125 C 1.003906 -0.09375 0.859375 -0.175781 0.734375 -0.28125 C 0.609375 -0.394531 0.515625 -0.53125 0.453125 -0.6875 C 0.390625 -0.84375 0.359375 -1.015625 0.359375 -1.203125 Z M 0.359375 -2 "/></g></g></g><g fill="#21d7e8" fill-opacity="0.302"><g transform="translate(1.604201, 13.285569)"><g><path d="M 1.5625 -0.578125 C 1.78125 -0.578125 1.945312 -0.632812 2.0625 -0.75 C 2.1875 -0.875 2.25 -1.035156 2.25 -1.234375 L 2.25 -3.515625 L 0.75 -3.515625 L 0.75 -4.1875 L 2.96875 -4.1875 L 2.96875 -1.234375 C 2.96875 -1.035156 2.9375 -0.851562 2.875 -0.6875 C 2.8125 -0.53125 2.71875 -0.394531 2.59375 -0.28125 C 2.46875 -0.164062 2.316406 -0.078125 2.140625 -0.015625 C 1.972656 0.0351562 1.78125 0.0625 1.5625 0.0625 C 1.363281 0.0625 1.179688 0.0351562 1.015625 -0.015625 C 0.859375 -0.078125 0.71875 -0.160156 0.59375 -0.265625 C 0.476562 -0.367188 0.382812 -0.492188 0.3125 -0.640625 C 0.238281 -0.785156 0.191406 -0.953125 0.171875 -1.140625 L 0.90625 -1.140625 C 0.925781 -0.972656 0.992188 -0.835938 1.109375 -0.734375 C 1.234375 -0.628906 1.382812 -0.578125 1.5625 -0.578125 Z M 1.5625 -0.578125 "/></g></g></g><g fill="#21d7e8" fill-opacity="0.302"><g transform="translate(5.088105, 13.285569)"><g><path d="M 1.75 0.0625 C 1.539062 0.0625 1.347656 0.0351562 1.171875 -0.015625 C 1.003906 -0.078125 0.859375 -0.15625 0.734375 -0.25 C 0.609375 -0.351562 0.507812 -0.476562 0.4375 -0.625 C 0.363281 -0.769531 0.320312 -0.929688 0.3125 -1.109375 L 1.0625 -1.109375 C 1.070312 -0.941406 1.140625 -0.8125 1.265625 -0.71875 C 1.390625 -0.625 1.554688 -0.578125 1.765625 -0.578125 C 1.972656 -0.578125 2.132812 -0.625 2.25 -0.71875 C 2.375 -0.8125 2.4375 -0.941406 2.4375 -1.109375 C 2.4375 -1.253906 2.390625 -1.378906 2.296875 -1.484375 C 2.210938 -1.585938 2.085938 -1.664062 1.921875 -1.71875 L 1.484375 -1.84375 C 0.765625 -2.039062 0.40625 -2.457031 0.40625 -3.09375 C 0.40625 -3.257812 0.4375 -3.414062 0.5 -3.5625 C 0.5625 -3.707031 0.648438 -3.832031 0.765625 -3.9375 C 0.878906 -4.039062 1.019531 -4.117188 1.1875 -4.171875 C 1.351562 -4.222656 1.539062 -4.25 1.75 -4.25 C 2.144531 -4.25 2.460938 -4.144531 2.703125 -3.9375 C 2.953125 -3.738281 3.085938 -3.460938 3.109375 -3.109375 L 2.359375 -3.109375 C 2.359375 -3.265625 2.296875 -3.382812 2.171875 -3.46875 C 2.054688 -3.5625 1.910156 -3.609375 1.734375 -3.609375 C 1.546875 -3.609375 1.394531 -3.5625 1.28125 -3.46875 C 1.175781 -3.382812 1.125 -3.269531 1.125 -3.125 C 1.125 -2.84375 1.296875 -2.65625 1.640625 -2.5625 L 2.09375 -2.421875 C 2.445312 -2.328125 2.710938 -2.171875 2.890625 -1.953125 C 3.078125 -1.734375 3.171875 -1.460938 3.171875 -1.140625 C 3.171875 -0.960938 3.132812 -0.800781 3.0625 -0.65625 C 3 -0.507812 2.90625 -0.378906 2.78125 -0.265625 C 2.65625 -0.160156 2.503906 -0.078125 2.328125 -0.015625 C 2.148438 0.0351562 1.957031 0.0625 1.75 0.0625 Z M 1.75 0.0625 "/></g></g></g><g fill="#21d7e8" fill-opacity="0.302"><g transform="translate(8.572008, 13.285569)"><g><path d="M 1.078125 -1.21875 C 1.078125 -1.03125 1.132812 -0.875 1.25 -0.75 C 1.375 -0.632812 1.539062 -0.578125 1.75 -0.578125 C 1.945312 -0.578125 2.101562 -0.632812 2.21875 -0.75 C 2.34375 -0.875 2.40625 -1.03125 2.40625 -1.21875 L 2.40625 -2.96875 C 2.40625 -3.164062 2.34375 -3.320312 2.21875 -3.4375 C 2.101562 -3.550781 1.945312 -3.609375 1.75 -3.609375 C 1.539062 -3.609375 1.375 -3.550781 1.25 -3.4375 C 1.132812 -3.320312 1.078125 -3.164062 1.078125 -2.96875 Z M 0.359375 -2.96875 C 0.359375 -3.15625 0.390625 -3.328125 0.453125 -3.484375 C 0.515625 -3.640625 0.601562 -3.773438 0.71875 -3.890625 C 0.84375 -4.003906 0.992188 -4.09375 1.171875 -4.15625 C 1.347656 -4.21875 1.539062 -4.25 1.75 -4.25 C 1.957031 -4.25 2.144531 -4.21875 2.3125 -4.15625 C 2.488281 -4.09375 2.632812 -4.003906 2.75 -3.890625 C 2.875 -3.773438 2.96875 -3.640625 3.03125 -3.484375 C 3.101562 -3.328125 3.140625 -3.15625 3.140625 -2.96875 L 3.140625 -1.21875 C 3.140625 -1.03125 3.101562 -0.859375 3.03125 -0.703125 C 2.96875 -0.546875 2.875 -0.410156 2.75 -0.296875 C 2.625 -0.179688 2.476562 -0.09375 2.3125 -0.03125 C 2.144531 0.0273438 1.957031 0.0625 1.75 0.0625 C 1.539062 0.0625 1.347656 0.0273438 1.171875 -0.03125 C 0.992188 -0.09375 0.84375 -0.175781 0.71875 -0.28125 C 0.601562 -0.394531 0.515625 -0.53125 0.453125 -0.6875 C 0.390625 -0.851562 0.359375 -1.03125 0.359375 -1.21875 Z M 0.359375 -2.96875 "/></g></g></g><g clip-path="url(#1a32336c1b)"><g fill="#21d7e8" fill-opacity="0.302"><g transform="translate(12.055911, 13.285569)"><g><path d="M 1.296875 -4.1875 L 2.296875 -1.40625 C 2.328125 -1.34375 2.347656 -1.269531 2.359375 -1.1875 C 2.378906 -1.101562 2.394531 -1.023438 2.40625 -0.953125 C 2.425781 -0.859375 2.441406 -0.769531 2.453125 -0.6875 L 2.515625 -0.6875 C 2.515625 -0.6875 2.507812 -0.710938 2.5 -0.765625 C 2.5 -0.828125 2.492188 -0.898438 2.484375 -0.984375 C 2.472656 -1.078125 2.460938 -1.175781 2.453125 -1.28125 C 2.441406 -1.394531 2.4375 -1.503906 2.4375 -1.609375 L 2.4375 -4.1875 L 3.09375 -4.1875 L 3.09375 0 L 2.1875 0 L 1.203125 -2.796875 C 1.171875 -2.867188 1.144531 -2.945312 1.125 -3.03125 C 1.113281 -3.113281 1.101562 -3.191406 1.09375 -3.265625 C 1.070312 -3.347656 1.054688 -3.425781 1.046875 -3.5 L 0.96875 -3.5 C 0.988281 -3.40625 1.003906 -3.304688 1.015625 -3.203125 C 1.015625 -3.117188 1.019531 -3.019531 1.03125 -2.90625 C 1.039062 -2.800781 1.046875 -2.695312 1.046875 -2.59375 L 1.046875 0 L 0.40625 0 L 0.40625 -4.1875 Z M 1.296875 -4.1875 "/></g></g></g></g><g fill="#21d7e8" fill-opacity="0.502"><g transform="translate(1.31823, 13.062144)"><g><path d="M 1.5625 -0.578125 C 1.78125 -0.578125 1.945312 -0.632812 2.0625 -0.75 C 2.1875 -0.875 2.25 -1.035156 2.25 -1.234375 L 2.25 -3.515625 L 0.75 -3.515625 L 0.75 -4.1875 L 2.96875 -4.1875 L 2.96875 -1.234375 C 2.96875 -1.035156 2.9375 -0.851562 2.875 -0.6875 C 2.8125 -0.53125 2.71875 -0.394531 2.59375 -0.28125 C 2.46875 -0.164062 2.316406 -0.078125 2.140625 -0.015625 C 1.972656 0.0351562 1.78125 0.0625 1.5625 0.0625 C 1.363281 0.0625 1.179688 0.0351562 1.015625 -0.015625 C 0.859375 -0.078125 0.71875 -0.160156 0.59375 -0.265625 C 0.476562 -0.367188 0.382812 -0.492188 0.3125 -0.640625 C 0.238281 -0.785156 0.191406 -0.953125 0.171875 -1.140625 L 0.90625 -1.140625 C 0.925781 -0.972656 0.992188 -0.835938 1.109375 -0.734375 C 1.234375 -0.628906 1.382812 -0.578125 1.5625 -0.578125 Z M 1.5625 -0.578125 "/></g></g></g><g fill="#21d7e8" fill-opacity="0.502"><g transform="translate(4.802133, 13.062144)"><g><path d="M 1.75 0.0625 C 1.539062 0.0625 1.347656 0.0351562 1.171875 -0.015625 C 1.003906 -0.078125 0.859375 -0.15625 0.734375 -0.25 C 0.609375 -0.351562 0.507812 -0.476562 0.4375 -0.625 C 0.363281 -0.769531 0.320312 -0.929688 0.3125 -1.109375 L 1.0625 -1.109375 C 1.070312 -0.941406 1.140625 -0.8125 1.265625 -0.71875 C 1.390625 -0.625 1.554688 -0.578125 1.765625 -0.578125 C 1.972656 -0.578125 2.132812 -0.625 2.25 -0.71875 C 2.375 -0.8125 2.4375 -0.941406 2.4375 -1.109375 C 2.4375 -1.253906 2.390625 -1.378906 2.296875 -1.484375 C 2.210938 -1.585938 2.085938 -1.664062 1.921875 -1.71875 L 1.484375 -1.84375 C 0.765625 -2.039062 0.40625 -2.457031 0.40625 -3.09375 C 0.40625 -3.257812 0.4375 -3.414062 0.5 -3.5625 C 0.5625 -3.707031 0.648438 -3.832031 0.765625 -3.9375 C 0.878906 -4.039062 1.019531 -4.117188 1.1875 -4.171875 C 1.351562 -4.222656 1.539062 -4.25 1.75 -4.25 C 2.144531 -4.25 2.460938 -4.144531 2.703125 -3.9375 C 2.953125 -3.738281 3.085938 -3.460938 3.109375 -3.109375 L 2.359375 -3.109375 C 2.359375 -3.265625 2.296875 -3.382812 2.171875 -3.46875 C 2.054688 -3.5625 1.910156 -3.609375 1.734375 -3.609375 C 1.546875 -3.609375 1.394531 -3.5625 1.28125 -3.46875 C 1.175781 -3.382812 1.125 -3.269531 1.125 -3.125 C 1.125 -2.84375 1.296875 -2.65625 1.640625 -2.5625 L 2.09375 -2.421875 C 2.445312 -2.328125 2.710938 -2.171875 2.890625 -1.953125 C 3.078125 -1.734375 3.171875 -1.460938 3.171875 -1.140625 C 3.171875 -0.960938 3.132812 -0.800781 3.0625 -0.65625 C 3 -0.507812 2.90625 -0.378906 2.78125 -0.265625 C 2.65625 -0.160156 2.503906 -0.078125 2.328125 -0.015625 C 2.148438 0.0351562 1.957031 0.0625 1.75 0.0625 Z M 1.75 0.0625 "/></g></g></g><g fill="#21d7e8" fill-opacity="0.502"><g transform="translate(8.286036, 13.062144)"><g><path d="M 1.078125 -1.21875 C 1.078125 -1.03125 1.132812 -0.875 1.25 -0.75 C 1.375 -0.632812 1.539062 -0.578125 1.75 -0.578125 C 1.945312 -0.578125 2.101562 -0.632812 2.21875 -0.75 C 2.34375 -0.875 2.40625 -1.03125 2.40625 -1.21875 L 2.40625 -2.96875 C 2.40625 -3.164062 2.34375 -3.320312 2.21875 -3.4375 C 2.101562 -3.550781 1.945312 -3.609375 1.75 -3.609375 C 1.539062 -3.609375 1.375 -3.550781 1.25 -3.4375 C 1.132812 -3.320312 1.078125 -3.164062 1.078125 -2.96875 Z M 0.359375 -2.96875 C 0.359375 -3.15625 0.390625 -3.328125 0.453125 -3.484375 C 0.515625 -3.640625 0.601562 -3.773438 0.71875 -3.890625 C 0.84375 -4.003906 0.992188 -4.09375 1.171875 -4.15625 C 1.347656 -4.21875 1.539062 -4.25 1.75 -4.25 C 1.957031 -4.25 2.144531 -4.21875 2.3125 -4.15625 C 2.488281 -4.09375 2.632812 -4.003906 2.75 -3.890625 C 2.875 -3.773438 2.96875 -3.640625 3.03125 -3.484375 C 3.101562 -3.328125 3.140625 -3.15625 3.140625 -2.96875 L 3.140625 -1.21875 C 3.140625 -1.03125 3.101562 -0.859375 3.03125 -0.703125 C 2.96875 -0.546875 2.875 -0.410156 2.75 -0.296875 C 2.625 -0.179688 2.476562 -0.09375 2.3125 -0.03125 C 2.144531 0.0273438 1.957031 0.0625 1.75 0.0625 C 1.539062 0.0625 1.347656 0.0273438 1.171875 -0.03125 C 0.992188 -0.09375 0.84375 -0.175781 0.71875 -0.28125 C 0.601562 -0.394531 0.515625 -0.53125 0.453125 -0.6875 C 0.390625 -0.851562 0.359375 -1.03125 0.359375 -1.21875 Z M 0.359375 -2.96875 "/></g></g></g><g fill="#21d7e8" fill-opacity="0.502"><g transform="translate(11.76994, 13.062144)"><g><path d="M 1.296875 -4.1875 L 2.296875 -1.40625 C 2.328125 -1.34375 2.347656 -1.269531 2.359375 -1.1875 C 2.378906 -1.101562 2.394531 -1.023438 2.40625 -0.953125 C 2.425781 -0.859375 2.441406 -0.769531 2.453125 -0.6875 L 2.515625 -0.6875 C 2.515625 -0.6875 2.507812 -0.710938 2.5 -0.765625 C 2.5 -0.828125 2.492188 -0.898438 2.484375 -0.984375 C 2.472656 -1.078125 2.460938 -1.175781 2.453125 -1.28125 C 2.441406 -1.394531 2.4375 -1.503906 2.4375 -1.609375 L 2.4375 -4.1875 L 3.09375 -4.1875 L 3.09375 0 L 2.1875 0 L 1.203125 -2.796875 C 1.171875 -2.867188 1.144531 -2.945312 1.125 -3.03125 C 1.113281 -3.113281 1.101562 -3.191406 1.09375 -3.265625 C 1.070312 -3.347656 1.054688 -3.425781 1.046875 -3.5 L 0.96875 -3.5 C 0.988281 -3.40625 1.003906 -3.304688 1.015625 -3.203125 C 1.015625 -3.117188 1.019531 -3.019531 1.03125 -2.90625 C 1.039062 -2.800781 1.046875 -2.695312 1.046875 -2.59375 L 1.046875 0 L 0.40625 0 L 0.40625 -4.1875 Z M 1.296875 -4.1875 "/></g></g></g><g fill="#243ce6" fill-opacity="1"><g transform="translate(2.771171, 6.548388)"><g><path d="M 0.34375 -2.015625 C 0.34375 -2.203125 0.367188 -2.367188 0.421875 -2.515625 C 0.472656 -2.671875 0.546875 -2.800781 0.640625 -2.90625 C 0.734375 -3.019531 0.847656 -3.101562 0.984375 -3.15625 C 1.117188 -3.21875 1.269531 -3.25 1.4375 -3.25 C 1.675781 -3.25 1.875 -3.191406 2.03125 -3.078125 C 2.1875 -2.960938 2.285156 -2.804688 2.328125 -2.609375 L 2.359375 -2.609375 L 2.359375 -3.203125 L 3.0625 -3.203125 L 3.0625 -0.203125 C 3.0625 -0.0234375 3.03125 0.132812 2.96875 0.28125 C 2.90625 0.425781 2.816406 0.546875 2.703125 0.640625 C 2.585938 0.742188 2.445312 0.820312 2.28125 0.875 C 2.113281 0.925781 1.929688 0.953125 1.734375 0.953125 L 0.875 0.953125 L 0.875 0.359375 L 1.734375 0.359375 C 1.921875 0.359375 2.066406 0.304688 2.171875 0.203125 C 2.285156 0.109375 2.34375 -0.0234375 2.34375 -0.203125 L 2.34375 -0.265625 L 2.359375 -0.90625 L 2.328125 -0.90625 C 2.285156 -0.707031 2.1875 -0.550781 2.03125 -0.4375 C 1.875 -0.320312 1.675781 -0.265625 1.4375 -0.265625 C 1.269531 -0.265625 1.117188 -0.289062 0.984375 -0.34375 C 0.847656 -0.40625 0.734375 -0.488281 0.640625 -0.59375 C 0.546875 -0.707031 0.472656 -0.835938 0.421875 -0.984375 C 0.367188 -1.140625 0.34375 -1.3125 0.34375 -1.5 Z M 1.0625 -1.515625 C 1.0625 -1.316406 1.117188 -1.160156 1.234375 -1.046875 C 1.347656 -0.941406 1.503906 -0.890625 1.703125 -0.890625 C 1.898438 -0.890625 2.054688 -0.941406 2.171875 -1.046875 C 2.285156 -1.160156 2.34375 -1.316406 2.34375 -1.515625 L 2.34375 -2 C 2.34375 -2.195312 2.285156 -2.347656 2.171875 -2.453125 C 2.054688 -2.566406 1.898438 -2.625 1.703125 -2.625 C 1.503906 -2.625 1.347656 -2.566406 1.234375 -2.453125 C 1.117188 -2.347656 1.0625 -2.195312 1.0625 -2 Z M 1.0625 -1.515625 "/></g></g></g><g fill="#243ce6" fill-opacity="1"><g transform="translate(6.255074, 6.548388)"><g><path d="M 1.75 0.0625 C 1.539062 0.0625 1.347656 0.0273438 1.171875 -0.03125 C 0.992188 -0.09375 0.84375 -0.175781 0.71875 -0.28125 C 0.601562 -0.394531 0.515625 -0.523438 0.453125 -0.671875 C 0.390625 -0.828125 0.359375 -1.003906 0.359375 -1.203125 L 0.359375 -2 C 0.359375 -2.195312 0.390625 -2.367188 0.453125 -2.515625 C 0.515625 -2.671875 0.601562 -2.800781 0.71875 -2.90625 C 0.84375 -3.019531 0.992188 -3.101562 1.171875 -3.15625 C 1.347656 -3.21875 1.539062 -3.25 1.75 -3.25 C 1.957031 -3.25 2.144531 -3.21875 2.3125 -3.15625 C 2.476562 -3.101562 2.617188 -3.019531 2.734375 -2.90625 C 2.859375 -2.800781 2.953125 -2.671875 3.015625 -2.515625 C 3.085938 -2.359375 3.125 -2.1875 3.125 -2 L 3.125 -1.421875 L 1.078125 -1.421875 L 1.078125 -1.203125 C 1.078125 -0.992188 1.132812 -0.828125 1.25 -0.703125 C 1.375 -0.585938 1.539062 -0.53125 1.75 -0.53125 C 1.90625 -0.53125 2.035156 -0.550781 2.140625 -0.59375 C 2.253906 -0.644531 2.335938 -0.71875 2.390625 -0.8125 L 3.09375 -0.8125 C 3.0625 -0.675781 3.003906 -0.554688 2.921875 -0.453125 C 2.835938 -0.347656 2.738281 -0.253906 2.625 -0.171875 C 2.507812 -0.0976562 2.375 -0.0390625 2.21875 0 C 2.070312 0.0390625 1.914062 0.0625 1.75 0.0625 Z M 2.40625 -1.90625 L 2.40625 -2 C 2.40625 -2.207031 2.347656 -2.367188 2.234375 -2.484375 C 2.117188 -2.609375 1.957031 -2.671875 1.75 -2.671875 C 1.539062 -2.671875 1.375 -2.609375 1.25 -2.484375 C 1.132812 -2.367188 1.078125 -2.207031 1.078125 -2 L 1.078125 -1.90625 Z M 2.40625 -1.90625 "/></g></g></g><g fill="#243ce6" fill-opacity="1"><g transform="translate(9.738978, 6.548388)"><g><path d="M 1.078125 -1.203125 C 1.078125 -1.015625 1.132812 -0.863281 1.25 -0.75 C 1.375 -0.632812 1.539062 -0.578125 1.75 -0.578125 C 1.945312 -0.578125 2.101562 -0.632812 2.21875 -0.75 C 2.34375 -0.863281 2.40625 -1.015625 2.40625 -1.203125 L 2.40625 -2 C 2.40625 -2.1875 2.34375 -2.335938 2.21875 -2.453125 C 2.101562 -2.566406 1.945312 -2.625 1.75 -2.625 C 1.539062 -2.625 1.375 -2.566406 1.25 -2.453125 C 1.132812 -2.335938 1.078125 -2.1875 1.078125 -2 Z M 0.359375 -2 C 0.359375 -2.1875 0.390625 -2.359375 0.453125 -2.515625 C 0.515625 -2.671875 0.609375 -2.800781 0.734375 -2.90625 C 0.859375 -3.019531 1.003906 -3.101562 1.171875 -3.15625 C 1.347656 -3.21875 1.539062 -3.25 1.75 -3.25 C 1.957031 -3.25 2.144531 -3.21875 2.3125 -3.15625 C 2.476562 -3.101562 2.625 -3.019531 2.75 -2.90625 C 2.875 -2.800781 2.96875 -2.671875 3.03125 -2.515625 C 3.101562 -2.359375 3.140625 -2.1875 3.140625 -2 L 3.140625 -1.203125 C 3.140625 -1.015625 3.101562 -0.84375 3.03125 -0.6875 C 2.96875 -0.53125 2.875 -0.394531 2.75 -0.28125 C 2.632812 -0.175781 2.488281 -0.09375 2.3125 -0.03125 C 2.144531 0.0273438 1.957031 0.0625 1.75 0.0625 C 1.539062 0.0625 1.347656 0.0273438 1.171875 -0.03125 C 1.003906 -0.09375 0.859375 -0.175781 0.734375 -0.28125 C 0.609375 -0.394531 0.515625 -0.53125 0.453125 -0.6875 C 0.390625 -0.84375 0.359375 -1.015625 0.359375 -1.203125 Z M 0.359375 -2 "/></g></g></g><g fill="#243ce6" fill-opacity="1"><g transform="translate(1.032258, 12.838718)"><g><path d="M 1.5625 -0.578125 C 1.78125 -0.578125 1.945312 -0.632812 2.0625 -0.75 C 2.1875 -0.875 2.25 -1.035156 2.25 -1.234375 L 2.25 -3.515625 L 0.75 -3.515625 L 0.75 -4.1875 L 2.96875 -4.1875 L 2.96875 -1.234375 C 2.96875 -1.035156 2.9375 -0.851562 2.875 -0.6875 C 2.8125 -0.53125 2.71875 -0.394531 2.59375 -0.28125 C 2.46875 -0.164062 2.316406 -0.078125 2.140625 -0.015625 C 1.972656 0.0351562 1.78125 0.0625 1.5625 0.0625 C 1.363281 0.0625 1.179688 0.0351562 1.015625 -0.015625 C 0.859375 -0.078125 0.71875 -0.160156 0.59375 -0.265625 C 0.476562 -0.367188 0.382812 -0.492188 0.3125 -0.640625 C 0.238281 -0.785156 0.191406 -0.953125 0.171875 -1.140625 L 0.90625 -1.140625 C 0.925781 -0.972656 0.992188 -0.835938 1.109375 -0.734375 C 1.234375 -0.628906 1.382812 -0.578125 1.5625 -0.578125 Z M 1.5625 -0.578125 "/></g></g></g><g fill="#243ce6" fill-opacity="1"><g transform="translate(4.516161, 12.838718)"><g><path d="M 1.75 0.0625 C 1.539062 0.0625 1.347656 0.0351562 1.171875 -0.015625 C 1.003906 -0.078125 0.859375 -0.15625 0.734375 -0.25 C 0.609375 -0.351562 0.507812 -0.476562 0.4375 -0.625 C 0.363281 -0.769531 0.320312 -0.929688 0.3125 -1.109375 L 1.0625 -1.109375 C 1.070312 -0.941406 1.140625 -0.8125 1.265625 -0.71875 C 1.390625 -0.625 1.554688 -0.578125 1.765625 -0.578125 C 1.972656 -0.578125 2.132812 -0.625 2.25 -0.71875 C 2.375 -0.8125 2.4375 -0.941406 2.4375 -1.109375 C 2.4375 -1.253906 2.390625 -1.378906 2.296875 -1.484375 C 2.210938 -1.585938 2.085938 -1.664062 1.921875 -1.71875 L 1.484375 -1.84375 C 0.765625 -2.039062 0.40625 -2.457031 0.40625 -3.09375 C 0.40625 -3.257812 0.4375 -3.414062 0.5 -3.5625 C 0.5625 -3.707031 0.648438 -3.832031 0.765625 -3.9375 C 0.878906 -4.039062 1.019531 -4.117188 1.1875 -4.171875 C 1.351562 -4.222656 1.539062 -4.25 1.75 -4.25 C 2.144531 -4.25 2.460938 -4.144531 2.703125 -3.9375 C 2.953125 -3.738281 3.085938 -3.460938 3.109375 -3.109375 L 2.359375 -3.109375 C 2.359375 -3.265625 2.296875 -3.382812 2.171875 -3.46875 C 2.054688 -3.5625 1.910156 -3.609375 1.734375 -3.609375 C 1.546875 -3.609375 1.394531 -3.5625 1.28125 -3.46875 C 1.175781 -3.382812 1.125 -3.269531 1.125 -3.125 C 1.125 -2.84375 1.296875 -2.65625 1.640625 -2.5625 L 2.09375 -2.421875 C 2.445312 -2.328125 2.710938 -2.171875 2.890625 -1.953125 C 3.078125 -1.734375 3.171875 -1.460938 3.171875 -1.140625 C 3.171875 -0.960938 3.132812 -0.800781 3.0625 -0.65625 C 3 -0.507812 2.90625 -0.378906 2.78125 -0.265625 C 2.65625 -0.160156 2.503906 -0.078125 2.328125 -0.015625 C 2.148438 0.0351562 1.957031 0.0625 1.75 0.0625 Z M 1.75 0.0625 "/></g></g></g><g fill="#243ce6" fill-opacity="1"><g transform="translate(8.000064, 12.838718)"><g><path d="M 1.078125 -1.21875 C 1.078125 -1.03125 1.132812 -0.875 1.25 -0.75 C 1.375 -0.632812 1.539062 -0.578125 1.75 -0.578125 C 1.945312 -0.578125 2.101562 -0.632812 2.21875 -0.75 C 2.34375 -0.875 2.40625 -1.03125 2.40625 -1.21875 L 2.40625 -2.96875 C 2.40625 -3.164062 2.34375 -3.320312 2.21875 -3.4375 C 2.101562 -3.550781 1.945312 -3.609375 1.75 -3.609375 C 1.539062 -3.609375 1.375 -3.550781 1.25 -3.4375 C 1.132812 -3.320312 1.078125 -3.164062 1.078125 -2.96875 Z M 0.359375 -2.96875 C 0.359375 -3.15625 0.390625 -3.328125 0.453125 -3.484375 C 0.515625 -3.640625 0.601562 -3.773438 0.71875 -3.890625 C 0.84375 -4.003906 0.992188 -4.09375 1.171875 -4.15625 C 1.347656 -4.21875 1.539062 -4.25 1.75 -4.25 C 1.957031 -4.25 2.144531 -4.21875 2.3125 -4.15625 C 2.488281 -4.09375 2.632812 -4.003906 2.75 -3.890625 C 2.875 -3.773438 2.96875 -3.640625 3.03125 -3.484375 C 3.101562 -3.328125 3.140625 -3.15625 3.140625 -2.96875 L 3.140625 -1.21875 C 3.140625 -1.03125 3.101562 -0.859375 3.03125 -0.703125 C 2.96875 -0.546875 2.875 -0.410156 2.75 -0.296875 C 2.625 -0.179688 2.476562 -0.09375 2.3125 -0.03125 C 2.144531 0.0273438 1.957031 0.0625 1.75 0.0625 C 1.539062 0.0625 1.347656 0.0273438 1.171875 -0.03125 C 0.992188 -0.09375 0.84375 -0.175781 0.71875 -0.28125 C 0.601562 -0.394531 0.515625 -0.53125 0.453125 -0.6875 C 0.390625 -0.851562 0.359375 -1.03125 0.359375 -1.21875 Z M 0.359375 -2.96875 "/></g></g></g><g fill="#243ce6" fill-opacity="1"><g transform="translate(11.483967, 12.838718)"><g><path d="M 1.296875 -4.1875 L 2.296875 -1.40625 C 2.328125 -1.34375 2.347656 -1.269531 2.359375 -1.1875 C 2.378906 -1.101562 2.394531 -1.023438 2.40625 -0.953125 C 2.425781 -0.859375 2.441406 -0.769531 2.453125 -0.6875 L 2.515625 -0.6875 C 2.515625 -0.6875 2.507812 -0.710938 2.5 -0.765625 C 2.5 -0.828125 2.492188 -0.898438 2.484375 -0.984375 C 2.472656 -1.078125 2.460938 -1.175781 2.453125 -1.28125 C 2.441406 -1.394531 2.4375 -1.503906 2.4375 -1.609375 L 2.4375 -4.1875 L 3.09375 -4.1875 L 3.09375 0 L 2.1875 0 L 1.203125 -2.796875 C 1.171875 -2.867188 1.144531 -2.945312 1.125 -3.03125 C 1.113281 -3.113281 1.101562 -3.191406 1.09375 -3.265625 C 1.070312 -3.347656 1.054688 -3.425781 1.046875 -3.5 L 0.96875 -3.5 C 0.988281 -3.40625 1.003906 -3.304688 1.015625 -3.203125 C 1.015625 -3.117188 1.019531 -3.019531 1.03125 -2.90625 C 1.039062 -2.800781 1.046875 -2.695312 1.046875 -2.59375 L 1.046875 0 L 0.40625 0 L 0.40625 -4.1875 Z M 1.296875 -4.1875 "/></g></g></g></g></g></svg>