<svg xmlns="http://www.w3.org/2000/svg" xmlns:xlink="http://www.w3.org/1999/xlink" width="40" zoomAndPan="magnify" viewBox="0 0 30 30.000001" height="40" preserveAspectRatio="xMidYMid meet" version="1.0"><defs><g/><clipPath id="b36c22575d"><rect x="0" width="19" y="0" height="17"/></clipPath></defs><g transform="matrix(1, 0, 0, 1, 6, 6)"><g clip-path="url(#b36c22575d)"><g fill="#21d7e8" fill-opacity="0.302"><g transform="translate(3.562936, 7.908424)"><g><path d="M 0.390625 -2.359375 C 0.390625 -2.566406 0.421875 -2.757812 0.484375 -2.9375 C 0.546875 -3.125 0.632812 -3.28125 0.75 -3.40625 C 0.863281 -3.53125 1 -3.625 1.15625 -3.6875 C 1.3125 -3.757812 1.488281 -3.796875 1.6875 -3.796875 C 1.96875 -3.796875 2.195312 -3.726562 2.375 -3.59375 C 2.550781 -3.457031 2.664062 -3.273438 2.71875 -3.046875 L 2.765625 -3.046875 L 2.765625 -3.734375 L 3.578125 -3.734375 L 3.578125 -0.234375 C 3.578125 -0.0234375 3.539062 0.160156 3.46875 0.328125 C 3.394531 0.492188 3.289062 0.632812 3.15625 0.75 C 3.019531 0.863281 2.851562 0.953125 2.65625 1.015625 C 2.46875 1.085938 2.253906 1.125 2.015625 1.125 L 1.03125 1.125 L 1.03125 0.40625 L 2.015625 0.40625 C 2.234375 0.40625 2.40625 0.347656 2.53125 0.234375 C 2.65625 0.128906 2.71875 -0.0234375 2.71875 -0.234375 L 2.71875 -0.3125 L 2.75 -1.046875 L 2.71875 -1.046875 C 2.664062 -0.816406 2.546875 -0.632812 2.359375 -0.5 C 2.179688 -0.375 1.957031 -0.3125 1.6875 -0.3125 C 1.488281 -0.3125 1.3125 -0.34375 1.15625 -0.40625 C 1 -0.476562 0.863281 -0.578125 0.75 -0.703125 C 0.632812 -0.828125 0.546875 -0.976562 0.484375 -1.15625 C 0.421875 -1.332031 0.390625 -1.53125 0.390625 -1.75 Z M 1.25 -1.765625 C 1.25 -1.535156 1.3125 -1.351562 1.4375 -1.21875 C 1.570312 -1.09375 1.753906 -1.03125 1.984375 -1.03125 C 2.210938 -1.03125 2.390625 -1.097656 2.515625 -1.234375 C 2.648438 -1.367188 2.71875 -1.546875 2.71875 -1.765625 L 2.71875 -2.328125 C 2.71875 -2.554688 2.648438 -2.734375 2.515625 -2.859375 C 2.390625 -2.992188 2.210938 -3.0625 1.984375 -3.0625 C 1.753906 -3.0625 1.570312 -2.992188 1.4375 -2.859375 C 1.3125 -2.734375 1.25 -2.554688 1.25 -2.328125 Z M 1.25 -1.765625 "/></g></g></g><g fill="#21d7e8" fill-opacity="0.302"><g transform="translate(7.627489, 7.908424)"><g><path d="M 2.03125 0.0625 C 1.789062 0.0625 1.566406 0.0273438 1.359375 -0.03125 C 1.160156 -0.101562 0.988281 -0.203125 0.84375 -0.328125 C 0.707031 -0.453125 0.597656 -0.601562 0.515625 -0.78125 C 0.441406 -0.96875 0.40625 -1.171875 0.40625 -1.390625 L 0.40625 -2.34375 C 0.40625 -2.5625 0.441406 -2.757812 0.515625 -2.9375 C 0.597656 -3.125 0.707031 -3.28125 0.84375 -3.40625 C 0.988281 -3.53125 1.160156 -3.625 1.359375 -3.6875 C 1.566406 -3.757812 1.789062 -3.796875 2.03125 -3.796875 C 2.28125 -3.796875 2.503906 -3.757812 2.703125 -3.6875 C 2.898438 -3.625 3.066406 -3.523438 3.203125 -3.390625 C 3.347656 -3.265625 3.457031 -3.113281 3.53125 -2.9375 C 3.601562 -2.757812 3.640625 -2.554688 3.640625 -2.328125 L 3.640625 -1.65625 L 1.25 -1.65625 L 1.25 -1.40625 C 1.25 -1.15625 1.316406 -0.957031 1.453125 -0.8125 C 1.597656 -0.675781 1.789062 -0.609375 2.03125 -0.609375 C 2.21875 -0.609375 2.375 -0.632812 2.5 -0.6875 C 2.632812 -0.75 2.726562 -0.835938 2.78125 -0.953125 L 3.609375 -0.953125 C 3.566406 -0.796875 3.5 -0.65625 3.40625 -0.53125 C 3.3125 -0.40625 3.195312 -0.296875 3.0625 -0.203125 C 2.925781 -0.117188 2.769531 -0.0507812 2.59375 0 C 2.414062 0.0390625 2.226562 0.0625 2.03125 0.0625 Z M 2.8125 -2.21875 L 2.8125 -2.328125 C 2.8125 -2.578125 2.742188 -2.769531 2.609375 -2.90625 C 2.472656 -3.050781 2.28125 -3.125 2.03125 -3.125 C 1.789062 -3.125 1.597656 -3.050781 1.453125 -2.90625 C 1.316406 -2.769531 1.25 -2.582031 1.25 -2.34375 L 1.25 -2.21875 Z M 2.8125 -2.21875 "/></g></g></g><g fill="#21d7e8" fill-opacity="0.302"><g transform="translate(11.692043, 7.908424)"><g><path d="M 1.265625 -1.40625 C 1.265625 -1.1875 1.332031 -1.007812 1.46875 -0.875 C 1.601562 -0.738281 1.789062 -0.671875 2.03125 -0.671875 C 2.269531 -0.671875 2.457031 -0.738281 2.59375 -0.875 C 2.738281 -1.007812 2.8125 -1.1875 2.8125 -1.40625 L 2.8125 -2.328125 C 2.8125 -2.554688 2.738281 -2.734375 2.59375 -2.859375 C 2.457031 -2.992188 2.269531 -3.0625 2.03125 -3.0625 C 1.800781 -3.0625 1.613281 -2.992188 1.46875 -2.859375 C 1.332031 -2.734375 1.265625 -2.554688 1.265625 -2.328125 Z M 0.40625 -2.328125 C 0.40625 -2.546875 0.441406 -2.742188 0.515625 -2.921875 C 0.597656 -3.109375 0.710938 -3.265625 0.859375 -3.390625 C 1.003906 -3.523438 1.175781 -3.625 1.375 -3.6875 C 1.570312 -3.757812 1.789062 -3.796875 2.03125 -3.796875 C 2.28125 -3.796875 2.503906 -3.757812 2.703125 -3.6875 C 2.898438 -3.625 3.066406 -3.523438 3.203125 -3.390625 C 3.347656 -3.265625 3.457031 -3.109375 3.53125 -2.921875 C 3.613281 -2.742188 3.65625 -2.546875 3.65625 -2.328125 L 3.65625 -1.40625 C 3.65625 -1.1875 3.613281 -0.984375 3.53125 -0.796875 C 3.457031 -0.617188 3.347656 -0.460938 3.203125 -0.328125 C 3.066406 -0.203125 2.898438 -0.101562 2.703125 -0.03125 C 2.503906 0.0273438 2.28125 0.0625 2.03125 0.0625 C 1.789062 0.0625 1.570312 0.0234375 1.375 -0.046875 C 1.175781 -0.117188 1.003906 -0.21875 0.859375 -0.34375 C 0.710938 -0.46875 0.597656 -0.617188 0.515625 -0.796875 C 0.441406 -0.984375 0.40625 -1.1875 0.40625 -1.40625 Z M 0.40625 -2.328125 "/></g></g></g><g fill="#21d7e8" fill-opacity="0.502"><g transform="translate(3.229302, 7.64776)"><g><path d="M 0.390625 -2.359375 C 0.390625 -2.566406 0.421875 -2.757812 0.484375 -2.9375 C 0.546875 -3.125 0.632812 -3.28125 0.75 -3.40625 C 0.863281 -3.53125 1 -3.625 1.15625 -3.6875 C 1.3125 -3.757812 1.488281 -3.796875 1.6875 -3.796875 C 1.96875 -3.796875 2.195312 -3.726562 2.375 -3.59375 C 2.550781 -3.457031 2.664062 -3.273438 2.71875 -3.046875 L 2.765625 -3.046875 L 2.765625 -3.734375 L 3.578125 -3.734375 L 3.578125 -0.234375 C 3.578125 -0.0234375 3.539062 0.160156 3.46875 0.328125 C 3.394531 0.492188 3.289062 0.632812 3.15625 0.75 C 3.019531 0.863281 2.851562 0.953125 2.65625 1.015625 C 2.46875 1.085938 2.253906 1.125 2.015625 1.125 L 1.03125 1.125 L 1.03125 0.40625 L 2.015625 0.40625 C 2.234375 0.40625 2.40625 0.347656 2.53125 0.234375 C 2.65625 0.128906 2.71875 -0.0234375 2.71875 -0.234375 L 2.71875 -0.3125 L 2.75 -1.046875 L 2.71875 -1.046875 C 2.664062 -0.816406 2.546875 -0.632812 2.359375 -0.5 C 2.179688 -0.375 1.957031 -0.3125 1.6875 -0.3125 C 1.488281 -0.3125 1.3125 -0.34375 1.15625 -0.40625 C 1 -0.476562 0.863281 -0.578125 0.75 -0.703125 C 0.632812 -0.828125 0.546875 -0.976562 0.484375 -1.15625 C 0.421875 -1.332031 0.390625 -1.53125 0.390625 -1.75 Z M 1.25 -1.765625 C 1.25 -1.535156 1.3125 -1.351562 1.4375 -1.21875 C 1.570312 -1.09375 1.753906 -1.03125 1.984375 -1.03125 C 2.210938 -1.03125 2.390625 -1.097656 2.515625 -1.234375 C 2.648438 -1.367188 2.71875 -1.546875 2.71875 -1.765625 L 2.71875 -2.328125 C 2.71875 -2.554688 2.648438 -2.734375 2.515625 -2.859375 C 2.390625 -2.992188 2.210938 -3.0625 1.984375 -3.0625 C 1.753906 -3.0625 1.570312 -2.992188 1.4375 -2.859375 C 1.3125 -2.734375 1.25 -2.554688 1.25 -2.328125 Z M 1.25 -1.765625 "/></g></g></g><g fill="#21d7e8" fill-opacity="0.502"><g transform="translate(7.293855, 7.64776)"><g><path d="M 2.03125 0.0625 C 1.789062 0.0625 1.566406 0.0273438 1.359375 -0.03125 C 1.160156 -0.101562 0.988281 -0.203125 0.84375 -0.328125 C 0.707031 -0.453125 0.597656 -0.601562 0.515625 -0.78125 C 0.441406 -0.96875 0.40625 -1.171875 0.40625 -1.390625 L 0.40625 -2.34375 C 0.40625 -2.5625 0.441406 -2.757812 0.515625 -2.9375 C 0.597656 -3.125 0.707031 -3.28125 0.84375 -3.40625 C 0.988281 -3.53125 1.160156 -3.625 1.359375 -3.6875 C 1.566406 -3.757812 1.789062 -3.796875 2.03125 -3.796875 C 2.28125 -3.796875 2.503906 -3.757812 2.703125 -3.6875 C 2.898438 -3.625 3.066406 -3.523438 3.203125 -3.390625 C 3.347656 -3.265625 3.457031 -3.113281 3.53125 -2.9375 C 3.601562 -2.757812 3.640625 -2.554688 3.640625 -2.328125 L 3.640625 -1.65625 L 1.25 -1.65625 L 1.25 -1.40625 C 1.25 -1.15625 1.316406 -0.957031 1.453125 -0.8125 C 1.597656 -0.675781 1.789062 -0.609375 2.03125 -0.609375 C 2.21875 -0.609375 2.375 -0.632812 2.5 -0.6875 C 2.632812 -0.75 2.726562 -0.835938 2.78125 -0.953125 L 3.609375 -0.953125 C 3.566406 -0.796875 3.5 -0.65625 3.40625 -0.53125 C 3.3125 -0.40625 3.195312 -0.296875 3.0625 -0.203125 C 2.925781 -0.117188 2.769531 -0.0507812 2.59375 0 C 2.414062 0.0390625 2.226562 0.0625 2.03125 0.0625 Z M 2.8125 -2.21875 L 2.8125 -2.328125 C 2.8125 -2.578125 2.742188 -2.769531 2.609375 -2.90625 C 2.472656 -3.050781 2.28125 -3.125 2.03125 -3.125 C 1.789062 -3.125 1.597656 -3.050781 1.453125 -2.90625 C 1.316406 -2.769531 1.25 -2.582031 1.25 -2.34375 L 1.25 -2.21875 Z M 2.8125 -2.21875 "/></g></g></g><g fill="#21d7e8" fill-opacity="0.502"><g transform="translate(11.358409, 7.64776)"><g><path d="M 1.265625 -1.40625 C 1.265625 -1.1875 1.332031 -1.007812 1.46875 -0.875 C 1.601562 -0.738281 1.789062 -0.671875 2.03125 -0.671875 C 2.269531 -0.671875 2.457031 -0.738281 2.59375 -0.875 C 2.738281 -1.007812 2.8125 -1.1875 2.8125 -1.40625 L 2.8125 -2.328125 C 2.8125 -2.554688 2.738281 -2.734375 2.59375 -2.859375 C 2.457031 -2.992188 2.269531 -3.0625 2.03125 -3.0625 C 1.800781 -3.0625 1.613281 -2.992188 1.46875 -2.859375 C 1.332031 -2.734375 1.265625 -2.554688 1.265625 -2.328125 Z M 0.40625 -2.328125 C 0.40625 -2.546875 0.441406 -2.742188 0.515625 -2.921875 C 0.597656 -3.109375 0.710938 -3.265625 0.859375 -3.390625 C 1.003906 -3.523438 1.175781 -3.625 1.375 -3.6875 C 1.570312 -3.757812 1.789062 -3.796875 2.03125 -3.796875 C 2.28125 -3.796875 2.503906 -3.757812 2.703125 -3.6875 C 2.898438 -3.625 3.066406 -3.523438 3.203125 -3.390625 C 3.347656 -3.265625 3.457031 -3.109375 3.53125 -2.921875 C 3.613281 -2.742188 3.65625 -2.546875 3.65625 -2.328125 L 3.65625 -1.40625 C 3.65625 -1.1875 3.613281 -0.984375 3.53125 -0.796875 C 3.457031 -0.617188 3.347656 -0.460938 3.203125 -0.328125 C 3.066406 -0.203125 2.898438 -0.101562 2.703125 -0.03125 C 2.503906 0.0273438 2.28125 0.0625 2.03125 0.0625 C 1.789062 0.0625 1.570312 0.0234375 1.375 -0.046875 C 1.175781 -0.117188 1.003906 -0.21875 0.859375 -0.34375 C 0.710938 -0.46875 0.597656 -0.617188 0.515625 -0.796875 C 0.441406 -0.984375 0.40625 -1.1875 0.40625 -1.40625 Z M 0.40625 -2.328125 "/></g></g></g><g fill="#21d7e8" fill-opacity="0.302"><g transform="translate(1.534203, 15.247142)"><g><path d="M 1.828125 -0.671875 C 2.078125 -0.671875 2.269531 -0.738281 2.40625 -0.875 C 2.550781 -1.019531 2.625 -1.207031 2.625 -1.4375 L 2.625 -4.109375 L 0.875 -4.109375 L 0.875 -4.890625 L 3.46875 -4.890625 L 3.46875 -1.4375 C 3.46875 -1.207031 3.425781 -1 3.34375 -0.8125 C 3.269531 -0.625 3.160156 -0.460938 3.015625 -0.328125 C 2.878906 -0.203125 2.707031 -0.101562 2.5 -0.03125 C 2.300781 0.0390625 2.078125 0.078125 1.828125 0.078125 C 1.597656 0.078125 1.382812 0.046875 1.1875 -0.015625 C 1 -0.0859375 0.832031 -0.179688 0.6875 -0.296875 C 0.550781 -0.421875 0.441406 -0.566406 0.359375 -0.734375 C 0.273438 -0.910156 0.222656 -1.109375 0.203125 -1.328125 L 1.0625 -1.328125 C 1.082031 -1.128906 1.160156 -0.96875 1.296875 -0.84375 C 1.429688 -0.726562 1.609375 -0.671875 1.828125 -0.671875 Z M 1.828125 -0.671875 "/></g></g></g><g fill="#21d7e8" fill-opacity="0.302"><g transform="translate(5.598757, 15.247142)"><g><path d="M 2.03125 0.0625 C 1.789062 0.0625 1.570312 0.0273438 1.375 -0.03125 C 1.175781 -0.09375 1.003906 -0.179688 0.859375 -0.296875 C 0.710938 -0.421875 0.597656 -0.566406 0.515625 -0.734375 C 0.429688 -0.898438 0.382812 -1.085938 0.375 -1.296875 L 1.234375 -1.296875 C 1.242188 -1.097656 1.320312 -0.941406 1.46875 -0.828125 C 1.625 -0.722656 1.820312 -0.671875 2.0625 -0.671875 C 2.300781 -0.671875 2.488281 -0.726562 2.625 -0.84375 C 2.769531 -0.957031 2.84375 -1.109375 2.84375 -1.296875 C 2.84375 -1.460938 2.789062 -1.601562 2.6875 -1.71875 C 2.582031 -1.84375 2.4375 -1.9375 2.25 -2 L 1.734375 -2.15625 C 0.890625 -2.382812 0.46875 -2.863281 0.46875 -3.59375 C 0.46875 -3.800781 0.503906 -3.988281 0.578125 -4.15625 C 0.648438 -4.320312 0.753906 -4.460938 0.890625 -4.578125 C 1.023438 -4.703125 1.191406 -4.796875 1.390625 -4.859375 C 1.585938 -4.921875 1.804688 -4.953125 2.046875 -4.953125 C 2.503906 -4.953125 2.875 -4.832031 3.15625 -4.59375 C 3.445312 -4.363281 3.601562 -4.039062 3.625 -3.625 L 2.765625 -3.625 C 2.753906 -3.8125 2.679688 -3.957031 2.546875 -4.0625 C 2.410156 -4.164062 2.238281 -4.21875 2.03125 -4.21875 C 1.8125 -4.21875 1.632812 -4.164062 1.5 -4.0625 C 1.375 -3.957031 1.3125 -3.816406 1.3125 -3.640625 C 1.3125 -3.316406 1.507812 -3.097656 1.90625 -2.984375 L 2.453125 -2.828125 C 2.859375 -2.722656 3.164062 -2.539062 3.375 -2.28125 C 3.59375 -2.03125 3.703125 -1.710938 3.703125 -1.328125 C 3.703125 -1.117188 3.660156 -0.925781 3.578125 -0.75 C 3.492188 -0.582031 3.378906 -0.4375 3.234375 -0.3125 C 3.097656 -0.195312 2.925781 -0.101562 2.71875 -0.03125 C 2.519531 0.0273438 2.289062 0.0625 2.03125 0.0625 Z M 2.03125 0.0625 "/></g></g></g><g fill="#21d7e8" fill-opacity="0.302"><g transform="translate(9.663311, 15.247142)"><g><path d="M 1.265625 -1.4375 C 1.265625 -1.195312 1.332031 -1.007812 1.46875 -0.875 C 1.613281 -0.738281 1.800781 -0.671875 2.03125 -0.671875 C 2.269531 -0.671875 2.457031 -0.738281 2.59375 -0.875 C 2.738281 -1.007812 2.8125 -1.195312 2.8125 -1.4375 L 2.8125 -3.453125 C 2.8125 -3.679688 2.738281 -3.863281 2.59375 -4 C 2.457031 -4.144531 2.269531 -4.21875 2.03125 -4.21875 C 1.800781 -4.21875 1.613281 -4.144531 1.46875 -4 C 1.332031 -3.863281 1.265625 -3.679688 1.265625 -3.453125 Z M 0.40625 -3.453125 C 0.40625 -3.679688 0.441406 -3.882812 0.515625 -4.0625 C 0.597656 -4.25 0.707031 -4.40625 0.84375 -4.53125 C 0.988281 -4.664062 1.160156 -4.769531 1.359375 -4.84375 C 1.566406 -4.914062 1.789062 -4.953125 2.03125 -4.953125 C 2.28125 -4.953125 2.503906 -4.914062 2.703125 -4.84375 C 2.898438 -4.769531 3.066406 -4.664062 3.203125 -4.53125 C 3.347656 -4.40625 3.457031 -4.25 3.53125 -4.0625 C 3.613281 -3.882812 3.65625 -3.679688 3.65625 -3.453125 L 3.65625 -1.4375 C 3.65625 -1.207031 3.613281 -1 3.53125 -0.8125 C 3.457031 -0.632812 3.347656 -0.476562 3.203125 -0.34375 C 3.066406 -0.21875 2.898438 -0.117188 2.703125 -0.046875 C 2.503906 0.0234375 2.28125 0.0625 2.03125 0.0625 C 1.789062 0.0625 1.566406 0.0273438 1.359375 -0.03125 C 1.160156 -0.101562 0.988281 -0.203125 0.84375 -0.328125 C 0.707031 -0.460938 0.597656 -0.625 0.515625 -0.8125 C 0.441406 -1 0.40625 -1.207031 0.40625 -1.4375 Z M 0.40625 -3.453125 "/></g></g></g><g fill="#21d7e8" fill-opacity="0.302"><g transform="translate(13.727864, 15.247142)"><g><path d="M 1.515625 -4.875 L 2.6875 -1.640625 C 2.707031 -1.566406 2.726562 -1.476562 2.75 -1.375 C 2.769531 -1.28125 2.789062 -1.191406 2.8125 -1.109375 C 2.832031 -1.003906 2.847656 -0.898438 2.859375 -0.796875 L 2.9375 -0.796875 C 2.9375 -0.796875 2.929688 -0.828125 2.921875 -0.890625 C 2.921875 -0.960938 2.910156 -1.050781 2.890625 -1.15625 C 2.878906 -1.257812 2.867188 -1.375 2.859375 -1.5 C 2.847656 -1.632812 2.84375 -1.757812 2.84375 -1.875 L 2.84375 -4.875 L 3.59375 -4.875 L 3.59375 0 L 2.5625 0 L 1.40625 -3.25 C 1.375 -3.34375 1.34375 -3.4375 1.3125 -3.53125 C 1.289062 -3.625 1.273438 -3.710938 1.265625 -3.796875 C 1.242188 -3.898438 1.226562 -4 1.21875 -4.09375 L 1.140625 -4.09375 C 1.148438 -3.976562 1.164062 -3.863281 1.1875 -3.75 C 1.1875 -3.644531 1.191406 -3.53125 1.203125 -3.40625 C 1.210938 -3.28125 1.21875 -3.148438 1.21875 -3.015625 L 1.21875 0 L 0.46875 0 L 0.46875 -4.875 Z M 1.515625 -4.875 "/></g></g></g><g fill="#21d7e8" fill-opacity="0.502"><g transform="translate(1.20057, 14.986478)"><g><path d="M 1.828125 -0.671875 C 2.078125 -0.671875 2.269531 -0.738281 2.40625 -0.875 C 2.550781 -1.019531 2.625 -1.207031 2.625 -1.4375 L 2.625 -4.109375 L 0.875 -4.109375 L 0.875 -4.890625 L 3.46875 -4.890625 L 3.46875 -1.4375 C 3.46875 -1.207031 3.425781 -1 3.34375 -0.8125 C 3.269531 -0.625 3.160156 -0.460938 3.015625 -0.328125 C 2.878906 -0.203125 2.707031 -0.101562 2.5 -0.03125 C 2.300781 0.0390625 2.078125 0.078125 1.828125 0.078125 C 1.597656 0.078125 1.382812 0.046875 1.1875 -0.015625 C 1 -0.0859375 0.832031 -0.179688 0.6875 -0.296875 C 0.550781 -0.421875 0.441406 -0.566406 0.359375 -0.734375 C 0.273438 -0.910156 0.222656 -1.109375 0.203125 -1.328125 L 1.0625 -1.328125 C 1.082031 -1.128906 1.160156 -0.96875 1.296875 -0.84375 C 1.429688 -0.726562 1.609375 -0.671875 1.828125 -0.671875 Z M 1.828125 -0.671875 "/></g></g></g><g fill="#21d7e8" fill-opacity="0.502"><g transform="translate(5.265123, 14.986478)"><g><path d="M 2.03125 0.0625 C 1.789062 0.0625 1.570312 0.0273438 1.375 -0.03125 C 1.175781 -0.09375 1.003906 -0.179688 0.859375 -0.296875 C 0.710938 -0.421875 0.597656 -0.566406 0.515625 -0.734375 C 0.429688 -0.898438 0.382812 -1.085938 0.375 -1.296875 L 1.234375 -1.296875 C 1.242188 -1.097656 1.320312 -0.941406 1.46875 -0.828125 C 1.625 -0.722656 1.820312 -0.671875 2.0625 -0.671875 C 2.300781 -0.671875 2.488281 -0.726562 2.625 -0.84375 C 2.769531 -0.957031 2.84375 -1.109375 2.84375 -1.296875 C 2.84375 -1.460938 2.789062 -1.601562 2.6875 -1.71875 C 2.582031 -1.84375 2.4375 -1.9375 2.25 -2 L 1.734375 -2.15625 C 0.890625 -2.382812 0.46875 -2.863281 0.46875 -3.59375 C 0.46875 -3.800781 0.503906 -3.988281 0.578125 -4.15625 C 0.648438 -4.320312 0.753906 -4.460938 0.890625 -4.578125 C 1.023438 -4.703125 1.191406 -4.796875 1.390625 -4.859375 C 1.585938 -4.921875 1.804688 -4.953125 2.046875 -4.953125 C 2.503906 -4.953125 2.875 -4.832031 3.15625 -4.59375 C 3.445312 -4.363281 3.601562 -4.039062 3.625 -3.625 L 2.765625 -3.625 C 2.753906 -3.8125 2.679688 -3.957031 2.546875 -4.0625 C 2.410156 -4.164062 2.238281 -4.21875 2.03125 -4.21875 C 1.8125 -4.21875 1.632812 -4.164062 1.5 -4.0625 C 1.375 -3.957031 1.3125 -3.816406 1.3125 -3.640625 C 1.3125 -3.316406 1.507812 -3.097656 1.90625 -2.984375 L 2.453125 -2.828125 C 2.859375 -2.722656 3.164062 -2.539062 3.375 -2.28125 C 3.59375 -2.03125 3.703125 -1.710938 3.703125 -1.328125 C 3.703125 -1.117188 3.660156 -0.925781 3.578125 -0.75 C 3.492188 -0.582031 3.378906 -0.4375 3.234375 -0.3125 C 3.097656 -0.195312 2.925781 -0.101562 2.71875 -0.03125 C 2.519531 0.0273438 2.289062 0.0625 2.03125 0.0625 Z M 2.03125 0.0625 "/></g></g></g><g fill="#21d7e8" fill-opacity="0.502"><g transform="translate(9.329677, 14.986478)"><g><path d="M 1.265625 -1.4375 C 1.265625 -1.195312 1.332031 -1.007812 1.46875 -0.875 C 1.613281 -0.738281 1.800781 -0.671875 2.03125 -0.671875 C 2.269531 -0.671875 2.457031 -0.738281 2.59375 -0.875 C 2.738281 -1.007812 2.8125 -1.195312 2.8125 -1.4375 L 2.8125 -3.453125 C 2.8125 -3.679688 2.738281 -3.863281 2.59375 -4 C 2.457031 -4.144531 2.269531 -4.21875 2.03125 -4.21875 C 1.800781 -4.21875 1.613281 -4.144531 1.46875 -4 C 1.332031 -3.863281 1.265625 -3.679688 1.265625 -3.453125 Z M 0.40625 -3.453125 C 0.40625 -3.679688 0.441406 -3.882812 0.515625 -4.0625 C 0.597656 -4.25 0.707031 -4.40625 0.84375 -4.53125 C 0.988281 -4.664062 1.160156 -4.769531 1.359375 -4.84375 C 1.566406 -4.914062 1.789062 -4.953125 2.03125 -4.953125 C 2.28125 -4.953125 2.503906 -4.914062 2.703125 -4.84375 C 2.898438 -4.769531 3.066406 -4.664062 3.203125 -4.53125 C 3.347656 -4.40625 3.457031 -4.25 3.53125 -4.0625 C 3.613281 -3.882812 3.65625 -3.679688 3.65625 -3.453125 L 3.65625 -1.4375 C 3.65625 -1.207031 3.613281 -1 3.53125 -0.8125 C 3.457031 -0.632812 3.347656 -0.476562 3.203125 -0.34375 C 3.066406 -0.21875 2.898438 -0.117188 2.703125 -0.046875 C 2.503906 0.0234375 2.28125 0.0625 2.03125 0.0625 C 1.789062 0.0625 1.566406 0.0273438 1.359375 -0.03125 C 1.160156 -0.101562 0.988281 -0.203125 0.84375 -0.328125 C 0.707031 -0.460938 0.597656 -0.625 0.515625 -0.8125 C 0.441406 -1 0.40625 -1.207031 0.40625 -1.4375 Z M 0.40625 -3.453125 "/></g></g></g><g fill="#21d7e8" fill-opacity="0.502"><g transform="translate(13.39423, 14.986478)"><g><path d="M 1.515625 -4.875 L 2.6875 -1.640625 C 2.707031 -1.566406 2.726562 -1.476562 2.75 -1.375 C 2.769531 -1.28125 2.789062 -1.191406 2.8125 -1.109375 C 2.832031 -1.003906 2.847656 -0.898438 2.859375 -0.796875 L 2.9375 -0.796875 C 2.9375 -0.796875 2.929688 -0.828125 2.921875 -0.890625 C 2.921875 -0.960938 2.910156 -1.050781 2.890625 -1.15625 C 2.878906 -1.257812 2.867188 -1.375 2.859375 -1.5 C 2.847656 -1.632812 2.84375 -1.757812 2.84375 -1.875 L 2.84375 -4.875 L 3.59375 -4.875 L 3.59375 0 L 2.5625 0 L 1.40625 -3.25 C 1.375 -3.34375 1.34375 -3.4375 1.3125 -3.53125 C 1.289062 -3.625 1.273438 -3.710938 1.265625 -3.796875 C 1.242188 -3.898438 1.226562 -4 1.21875 -4.09375 L 1.140625 -4.09375 C 1.148438 -3.976562 1.164062 -3.863281 1.1875 -3.75 C 1.1875 -3.644531 1.191406 -3.53125 1.203125 -3.40625 C 1.210938 -3.28125 1.21875 -3.148438 1.21875 -3.015625 L 1.21875 0 L 0.46875 0 L 0.46875 -4.875 Z M 1.515625 -4.875 "/></g></g></g><g fill="#ffffff" fill-opacity="1"><g transform="translate(2.895668, 7.387097)"><g><path d="M 0.390625 -2.359375 C 0.390625 -2.566406 0.421875 -2.757812 0.484375 -2.9375 C 0.546875 -3.125 0.632812 -3.28125 0.75 -3.40625 C 0.863281 -3.53125 1 -3.625 1.15625 -3.6875 C 1.3125 -3.757812 1.488281 -3.796875 1.6875 -3.796875 C 1.96875 -3.796875 2.195312 -3.726562 2.375 -3.59375 C 2.550781 -3.457031 2.664062 -3.273438 2.71875 -3.046875 L 2.765625 -3.046875 L 2.765625 -3.734375 L 3.578125 -3.734375 L 3.578125 -0.234375 C 3.578125 -0.0234375 3.539062 0.160156 3.46875 0.328125 C 3.394531 0.492188 3.289062 0.632812 3.15625 0.75 C 3.019531 0.863281 2.851562 0.953125 2.65625 1.015625 C 2.46875 1.085938 2.253906 1.125 2.015625 1.125 L 1.03125 1.125 L 1.03125 0.40625 L 2.015625 0.40625 C 2.234375 0.40625 2.40625 0.347656 2.53125 0.234375 C 2.65625 0.128906 2.71875 -0.0234375 2.71875 -0.234375 L 2.71875 -0.3125 L 2.75 -1.046875 L 2.71875 -1.046875 C 2.664062 -0.816406 2.546875 -0.632812 2.359375 -0.5 C 2.179688 -0.375 1.957031 -0.3125 1.6875 -0.3125 C 1.488281 -0.3125 1.3125 -0.34375 1.15625 -0.40625 C 1 -0.476562 0.863281 -0.578125 0.75 -0.703125 C 0.632812 -0.828125 0.546875 -0.976562 0.484375 -1.15625 C 0.421875 -1.332031 0.390625 -1.53125 0.390625 -1.75 Z M 1.25 -1.765625 C 1.25 -1.535156 1.3125 -1.351562 1.4375 -1.21875 C 1.570312 -1.09375 1.753906 -1.03125 1.984375 -1.03125 C 2.210938 -1.03125 2.390625 -1.097656 2.515625 -1.234375 C 2.648438 -1.367188 2.71875 -1.546875 2.71875 -1.765625 L 2.71875 -2.328125 C 2.71875 -2.554688 2.648438 -2.734375 2.515625 -2.859375 C 2.390625 -2.992188 2.210938 -3.0625 1.984375 -3.0625 C 1.753906 -3.0625 1.570312 -2.992188 1.4375 -2.859375 C 1.3125 -2.734375 1.25 -2.554688 1.25 -2.328125 Z M 1.25 -1.765625 "/></g></g></g><g fill="#ffffff" fill-opacity="1"><g transform="translate(6.960221, 7.387097)"><g><path d="M 2.03125 0.0625 C 1.789062 0.0625 1.566406 0.0273438 1.359375 -0.03125 C 1.160156 -0.101562 0.988281 -0.203125 0.84375 -0.328125 C 0.707031 -0.453125 0.597656 -0.601562 0.515625 -0.78125 C 0.441406 -0.96875 0.40625 -1.171875 0.40625 -1.390625 L 0.40625 -2.34375 C 0.40625 -2.5625 0.441406 -2.757812 0.515625 -2.9375 C 0.597656 -3.125 0.707031 -3.28125 0.84375 -3.40625 C 0.988281 -3.53125 1.160156 -3.625 1.359375 -3.6875 C 1.566406 -3.757812 1.789062 -3.796875 2.03125 -3.796875 C 2.28125 -3.796875 2.503906 -3.757812 2.703125 -3.6875 C 2.898438 -3.625 3.066406 -3.523438 3.203125 -3.390625 C 3.347656 -3.265625 3.457031 -3.113281 3.53125 -2.9375 C 3.601562 -2.757812 3.640625 -2.554688 3.640625 -2.328125 L 3.640625 -1.65625 L 1.25 -1.65625 L 1.25 -1.40625 C 1.25 -1.15625 1.316406 -0.957031 1.453125 -0.8125 C 1.597656 -0.675781 1.789062 -0.609375 2.03125 -0.609375 C 2.21875 -0.609375 2.375 -0.632812 2.5 -0.6875 C 2.632812 -0.75 2.726562 -0.835938 2.78125 -0.953125 L 3.609375 -0.953125 C 3.566406 -0.796875 3.5 -0.65625 3.40625 -0.53125 C 3.3125 -0.40625 3.195312 -0.296875 3.0625 -0.203125 C 2.925781 -0.117188 2.769531 -0.0507812 2.59375 0 C 2.414062 0.0390625 2.226562 0.0625 2.03125 0.0625 Z M 2.8125 -2.21875 L 2.8125 -2.328125 C 2.8125 -2.578125 2.742188 -2.769531 2.609375 -2.90625 C 2.472656 -3.050781 2.28125 -3.125 2.03125 -3.125 C 1.789062 -3.125 1.597656 -3.050781 1.453125 -2.90625 C 1.316406 -2.769531 1.25 -2.582031 1.25 -2.34375 L 1.25 -2.21875 Z M 2.8125 -2.21875 "/></g></g></g><g fill="#ffffff" fill-opacity="1"><g transform="translate(11.024775, 7.387097)"><g><path d="M 1.265625 -1.40625 C 1.265625 -1.1875 1.332031 -1.007812 1.46875 -0.875 C 1.601562 -0.738281 1.789062 -0.671875 2.03125 -0.671875 C 2.269531 -0.671875 2.457031 -0.738281 2.59375 -0.875 C 2.738281 -1.007812 2.8125 -1.1875 2.8125 -1.40625 L 2.8125 -2.328125 C 2.8125 -2.554688 2.738281 -2.734375 2.59375 -2.859375 C 2.457031 -2.992188 2.269531 -3.0625 2.03125 -3.0625 C 1.800781 -3.0625 1.613281 -2.992188 1.46875 -2.859375 C 1.332031 -2.734375 1.265625 -2.554688 1.265625 -2.328125 Z M 0.40625 -2.328125 C 0.40625 -2.546875 0.441406 -2.742188 0.515625 -2.921875 C 0.597656 -3.109375 0.710938 -3.265625 0.859375 -3.390625 C 1.003906 -3.523438 1.175781 -3.625 1.375 -3.6875 C 1.570312 -3.757812 1.789062 -3.796875 2.03125 -3.796875 C 2.28125 -3.796875 2.503906 -3.757812 2.703125 -3.6875 C 2.898438 -3.625 3.066406 -3.523438 3.203125 -3.390625 C 3.347656 -3.265625 3.457031 -3.109375 3.53125 -2.921875 C 3.613281 -2.742188 3.65625 -2.546875 3.65625 -2.328125 L 3.65625 -1.40625 C 3.65625 -1.1875 3.613281 -0.984375 3.53125 -0.796875 C 3.457031 -0.617188 3.347656 -0.460938 3.203125 -0.328125 C 3.066406 -0.203125 2.898438 -0.101562 2.703125 -0.03125 C 2.503906 0.0273438 2.28125 0.0625 2.03125 0.0625 C 1.789062 0.0625 1.570312 0.0234375 1.375 -0.046875 C 1.175781 -0.117188 1.003906 -0.21875 0.859375 -0.34375 C 0.710938 -0.46875 0.597656 -0.617188 0.515625 -0.796875 C 0.441406 -0.984375 0.40625 -1.1875 0.40625 -1.40625 Z M 0.40625 -2.328125 "/></g></g></g><g fill="#ffffff" fill-opacity="1"><g transform="translate(0.866936, 14.725815)"><g><path d="M 1.828125 -0.671875 C 2.078125 -0.671875 2.269531 -0.738281 2.40625 -0.875 C 2.550781 -1.019531 2.625 -1.207031 2.625 -1.4375 L 2.625 -4.109375 L 0.875 -4.109375 L 0.875 -4.890625 L 3.46875 -4.890625 L 3.46875 -1.4375 C 3.46875 -1.207031 3.425781 -1 3.34375 -0.8125 C 3.269531 -0.625 3.160156 -0.460938 3.015625 -0.328125 C 2.878906 -0.203125 2.707031 -0.101562 2.5 -0.03125 C 2.300781 0.0390625 2.078125 0.078125 1.828125 0.078125 C 1.597656 0.078125 1.382812 0.046875 1.1875 -0.015625 C 1 -0.0859375 0.832031 -0.179688 0.6875 -0.296875 C 0.550781 -0.421875 0.441406 -0.566406 0.359375 -0.734375 C 0.273438 -0.910156 0.222656 -1.109375 0.203125 -1.328125 L 1.0625 -1.328125 C 1.082031 -1.128906 1.160156 -0.96875 1.296875 -0.84375 C 1.429688 -0.726562 1.609375 -0.671875 1.828125 -0.671875 Z M 1.828125 -0.671875 "/></g></g></g><g fill="#ffffff" fill-opacity="1"><g transform="translate(4.931489, 14.725815)"><g><path d="M 2.03125 0.0625 C 1.789062 0.0625 1.570312 0.0273438 1.375 -0.03125 C 1.175781 -0.09375 1.003906 -0.179688 0.859375 -0.296875 C 0.710938 -0.421875 0.597656 -0.566406 0.515625 -0.734375 C 0.429688 -0.898438 0.382812 -1.085938 0.375 -1.296875 L 1.234375 -1.296875 C 1.242188 -1.097656 1.320312 -0.941406 1.46875 -0.828125 C 1.625 -0.722656 1.820312 -0.671875 2.0625 -0.671875 C 2.300781 -0.671875 2.488281 -0.726562 2.625 -0.84375 C 2.769531 -0.957031 2.84375 -1.109375 2.84375 -1.296875 C 2.84375 -1.460938 2.789062 -1.601562 2.6875 -1.71875 C 2.582031 -1.84375 2.4375 -1.9375 2.25 -2 L 1.734375 -2.15625 C 0.890625 -2.382812 0.46875 -2.863281 0.46875 -3.59375 C 0.46875 -3.800781 0.503906 -3.988281 0.578125 -4.15625 C 0.648438 -4.320312 0.753906 -4.460938 0.890625 -4.578125 C 1.023438 -4.703125 1.191406 -4.796875 1.390625 -4.859375 C 1.585938 -4.921875 1.804688 -4.953125 2.046875 -4.953125 C 2.503906 -4.953125 2.875 -4.832031 3.15625 -4.59375 C 3.445312 -4.363281 3.601562 -4.039062 3.625 -3.625 L 2.765625 -3.625 C 2.753906 -3.8125 2.679688 -3.957031 2.546875 -4.0625 C 2.410156 -4.164062 2.238281 -4.21875 2.03125 -4.21875 C 1.8125 -4.21875 1.632812 -4.164062 1.5 -4.0625 C 1.375 -3.957031 1.3125 -3.816406 1.3125 -3.640625 C 1.3125 -3.316406 1.507812 -3.097656 1.90625 -2.984375 L 2.453125 -2.828125 C 2.859375 -2.722656 3.164062 -2.539062 3.375 -2.28125 C 3.59375 -2.03125 3.703125 -1.710938 3.703125 -1.328125 C 3.703125 -1.117188 3.660156 -0.925781 3.578125 -0.75 C 3.492188 -0.582031 3.378906 -0.4375 3.234375 -0.3125 C 3.097656 -0.195312 2.925781 -0.101562 2.71875 -0.03125 C 2.519531 0.0273438 2.289062 0.0625 2.03125 0.0625 Z M 2.03125 0.0625 "/></g></g></g><g fill="#ffffff" fill-opacity="1"><g transform="translate(8.996043, 14.725815)"><g><path d="M 1.265625 -1.4375 C 1.265625 -1.195312 1.332031 -1.007812 1.46875 -0.875 C 1.613281 -0.738281 1.800781 -0.671875 2.03125 -0.671875 C 2.269531 -0.671875 2.457031 -0.738281 2.59375 -0.875 C 2.738281 -1.007812 2.8125 -1.195312 2.8125 -1.4375 L 2.8125 -3.453125 C 2.8125 -3.679688 2.738281 -3.863281 2.59375 -4 C 2.457031 -4.144531 2.269531 -4.21875 2.03125 -4.21875 C 1.800781 -4.21875 1.613281 -4.144531 1.46875 -4 C 1.332031 -3.863281 1.265625 -3.679688 1.265625 -3.453125 Z M 0.40625 -3.453125 C 0.40625 -3.679688 0.441406 -3.882812 0.515625 -4.0625 C 0.597656 -4.25 0.707031 -4.40625 0.84375 -4.53125 C 0.988281 -4.664062 1.160156 -4.769531 1.359375 -4.84375 C 1.566406 -4.914062 1.789062 -4.953125 2.03125 -4.953125 C 2.28125 -4.953125 2.503906 -4.914062 2.703125 -4.84375 C 2.898438 -4.769531 3.066406 -4.664062 3.203125 -4.53125 C 3.347656 -4.40625 3.457031 -4.25 3.53125 -4.0625 C 3.613281 -3.882812 3.65625 -3.679688 3.65625 -3.453125 L 3.65625 -1.4375 C 3.65625 -1.207031 3.613281 -1 3.53125 -0.8125 C 3.457031 -0.632812 3.347656 -0.476562 3.203125 -0.34375 C 3.066406 -0.21875 2.898438 -0.117188 2.703125 -0.046875 C 2.503906 0.0234375 2.28125 0.0625 2.03125 0.0625 C 1.789062 0.0625 1.566406 0.0273438 1.359375 -0.03125 C 1.160156 -0.101562 0.988281 -0.203125 0.84375 -0.328125 C 0.707031 -0.460938 0.597656 -0.625 0.515625 -0.8125 C 0.441406 -1 0.40625 -1.207031 0.40625 -1.4375 Z M 0.40625 -3.453125 "/></g></g></g><g fill="#ffffff" fill-opacity="1"><g transform="translate(13.060596, 14.725815)"><g><path d="M 1.515625 -4.875 L 2.6875 -1.640625 C 2.707031 -1.566406 2.726562 -1.476562 2.75 -1.375 C 2.769531 -1.28125 2.789062 -1.191406 2.8125 -1.109375 C 2.832031 -1.003906 2.847656 -0.898438 2.859375 -0.796875 L 2.9375 -0.796875 C 2.9375 -0.796875 2.929688 -0.828125 2.921875 -0.890625 C 2.921875 -0.960938 2.910156 -1.050781 2.890625 -1.15625 C 2.878906 -1.257812 2.867188 -1.375 2.859375 -1.5 C 2.847656 -1.632812 2.84375 -1.757812 2.84375 -1.875 L 2.84375 -4.875 L 3.59375 -4.875 L 3.59375 0 L 2.5625 0 L 1.40625 -3.25 C 1.375 -3.34375 1.34375 -3.4375 1.3125 -3.53125 C 1.289062 -3.625 1.273438 -3.710938 1.265625 -3.796875 C 1.242188 -3.898438 1.226562 -4 1.21875 -4.09375 L 1.140625 -4.09375 C 1.148438 -3.976562 1.164062 -3.863281 1.1875 -3.75 C 1.1875 -3.644531 1.191406 -3.53125 1.203125 -3.40625 C 1.210938 -3.28125 1.21875 -3.148438 1.21875 -3.015625 L 1.21875 0 L 0.46875 0 L 0.46875 -4.875 Z M 1.515625 -4.875 "/></g></g></g></g></g></svg>