<svg xmlns="http://www.w3.org/2000/svg" xmlns:xlink="http://www.w3.org/1999/xlink" width="40" zoomAndPan="magnify" viewBox="0 0 30 30.000001" height="40" preserveAspectRatio="xMidYMid meet" version="1.0"><defs><clipPath id="3c54bda3b9"><path d="M 8.503906 8.019531 L 21.570312 8.019531 L 21.570312 21.085938 L 8.503906 21.085938 Z M 8.503906 8.019531 " clip-rule="nonzero"/></clipPath></defs><g clip-path="url(#3c54bda3b9)"><path fill="#ffffff" d="M 21.328125 17.550781 C 21.421875 17.804688 21.480469 18.078125 21.488281 18.363281 C 21.488281 18.390625 21.488281 18.417969 21.488281 18.445312 C 21.488281 19.859375 20.34375 21.003906 18.929688 21.003906 C 13.171875 21.003906 8.503906 16.339844 8.503906 10.582031 C 8.503906 9.167969 9.652344 8.019531 11.0625 8.019531 C 11.09375 8.019531 11.121094 8.019531 11.148438 8.023438 C 11.429688 8.03125 11.703125 8.085938 11.957031 8.179688 L 12.917969 12.34375 C 12.917969 12.34375 12.917969 12.34375 12.914062 12.347656 L 11.152344 13.140625 L 11.148438 13.140625 C 11.957031 15.605469 13.90625 17.550781 16.367188 18.363281 L 16.371094 18.355469 L 17.164062 16.59375 L 21.328125 17.550781 " fill-opacity="1" fill-rule="nonzero"/></g></svg>