<svg xmlns="http://www.w3.org/2000/svg" xmlns:xlink="http://www.w3.org/1999/xlink" width="40" zoomAndPan="magnify" viewBox="0 0 30 30.000001" height="40" preserveAspectRatio="xMidYMid meet" version="1.0"><defs><clipPath id="fc2308faa8"><path d="M 5 11 L 13 11 L 13 12.832031 L 5 12.832031 Z M 5 11 " clip-rule="nonzero"/></clipPath><clipPath id="1f8ac5865a"><path d="M 6 6 L 7 6 L 7 12.832031 L 6 12.832031 Z M 6 6 " clip-rule="nonzero"/></clipPath><clipPath id="ddbf974eb1"><path d="M 11 8 L 13 8 L 13 12.832031 L 11 12.832031 Z M 11 8 " clip-rule="nonzero"/></clipPath><clipPath id="c440b3549f"><path d="M 14 0.289062 L 16 0.289062 L 16 10 L 14 10 Z M 14 0.289062 " clip-rule="nonzero"/></clipPath><clipPath id="2bf441d841"><rect x="0" width="17" y="0" height="13"/></clipPath></defs><g transform="matrix(1, 0, 0, 1, 6, 9)"><g clip-path="url(#2bf441d841)"><path stroke-linecap="butt" transform="matrix(0, -0.592871, 0.592871, 0, 1.321389, 7.466789)" fill="none" stroke-linejoin="miter" d="M 0.00328063 0.498925 L 10.301415 0.498925 " stroke="#fcfcfc" stroke-width="1" stroke-opacity="1" stroke-miterlimit="4"/><g clip-path="url(#fc2308faa8)"><path stroke-linecap="butt" transform="matrix(0.592871, 0, 0, 0.592871, 6.065286, 11.736388)" fill="none" stroke-linejoin="miter" d="M 0.00188927 0.497346 L 10.603104 0.497346 " stroke="#fcfcfc" stroke-width="1" stroke-opacity="1" stroke-miterlimit="4"/></g><g clip-path="url(#1f8ac5865a)"><path stroke-linecap="butt" transform="matrix(0, -0.592871, 0.592871, 0, 6.061581, 12.029118)" fill="none" stroke-linejoin="miter" d="M 0.00299332 0.502291 L 8.199334 0.502291 " stroke="#fcfcfc" stroke-width="1" stroke-opacity="1" stroke-miterlimit="4"/></g><path stroke-linecap="butt" transform="matrix(0.592871, 0, 0, 0.592871, 1.322316, 7.17128)" fill="none" stroke-linejoin="miter" d="M 0.0032099 0.501745 L 8.50263 0.501745 " stroke="#fcfcfc" stroke-width="1" stroke-opacity="1" stroke-miterlimit="4"/><path stroke-linecap="butt" transform="matrix(0.592871, 0, 0, 0.592871, 1.322316, 1.064705)" fill="none" stroke-linejoin="miter" d="M 0.0032099 0.497022 L 23.999248 0.497022 " stroke="#fcfcfc" stroke-width="1" stroke-opacity="1" stroke-miterlimit="4"/><g clip-path="url(#ddbf974eb1)"><path stroke-linecap="butt" transform="matrix(0, -0.592871, 0.592871, 0, 11.75685, 12.032824)" fill="none" stroke-linejoin="miter" d="M 0.00265423 0.502364 L 5.998369 0.502364 " stroke="#fcfcfc" stroke-width="1" stroke-opacity="1" stroke-miterlimit="4"/></g><g clip-path="url(#c440b3549f)"><path stroke-linecap="butt" transform="matrix(0, -0.592871, 0.592871, 0, 14.958356, 8.772032)" fill="none" stroke-linejoin="miter" d="M -0.00237083 0.498506 L 12.99713 0.498506 " stroke="#fcfcfc" stroke-width="1" stroke-opacity="1" stroke-miterlimit="4"/></g><path stroke-linecap="butt" transform="matrix(0.592871, 0, 0, 0.592871, 12.349724, 8.475596)" fill="none" stroke-linejoin="miter" d="M 0.0031016 0.502371 L 5.399245 0.502371 " stroke="#fcfcfc" stroke-width="1" stroke-opacity="1" stroke-miterlimit="4"/></g></g></svg>