<svg xmlns="http://www.w3.org/2000/svg" xmlns:xlink="http://www.w3.org/1999/xlink" width="64" zoomAndPan="magnify" viewBox="0 0 48 30.000001" height="40" preserveAspectRatio="xMidYMid meet" version="1.0"><path fill="#fcfcfc" d="M 13.6875 5.351562 C 12.996094 6.148438 12.292969 6.988281 11.570312 7.871094 C 10.847656 8.75 10.140625 9.632812 9.453125 10.511719 C 8.761719 11.394531 8.101562 12.246094 7.464844 13.074219 C 6.832031 13.898438 6.253906 14.664062 5.726562 15.363281 C 5.890625 15.40625 6.113281 15.433594 6.398438 15.445312 C 6.683594 15.457031 7.074219 15.460938 7.566406 15.460938 C 8.199219 15.460938 8.816406 15.417969 9.417969 15.328125 C 10.019531 15.242188 10.578125 15.082031 11.09375 14.84375 C 11.605469 14.609375 12.0625 14.285156 12.457031 13.867188 C 12.847656 13.453125 13.160156 12.921875 13.390625 12.277344 L 13.71875 12.277344 L 12.472656 15.953125 C 11.507812 15.929688 10.550781 15.914062 9.589844 15.902344 C 8.632812 15.894531 7.675781 15.886719 6.710938 15.886719 C 6.207031 15.886719 5.707031 15.894531 5.210938 15.902344 C 4.710938 15.914062 4.210938 15.929688 3.707031 15.953125 L 3.578125 15.757812 L 11.570312 5.648438 L 9.371094 5.648438 C 8.890625 5.648438 8.40625 5.6875 7.925781 5.769531 C 7.445312 5.851562 7 5.996094 6.597656 6.203125 C 6.191406 6.414062 5.847656 6.695312 5.5625 7.050781 C 5.277344 7.40625 5.085938 7.855469 4.988281 8.402344 L 4.757812 8.402344 C 4.746094 8.207031 4.75 8.011719 4.765625 7.8125 C 4.785156 7.617188 4.792969 7.425781 4.792969 7.238281 C 4.792969 6.890625 4.808594 6.542969 4.839844 6.195312 C 4.875 5.851562 4.917969 5.503906 4.972656 5.15625 C 5.3125 5.164062 5.667969 5.175781 6.046875 5.1875 C 6.425781 5.199219 6.796875 5.207031 7.164062 5.210938 C 7.53125 5.21875 7.882812 5.21875 8.222656 5.21875 L 9.15625 5.21875 C 9.910156 5.21875 10.648438 5.214844 11.363281 5.203125 C 12.082031 5.191406 12.816406 5.175781 13.570312 5.15625 Z M 13.6875 5.351562 " fill-opacity="1" fill-rule="nonzero"/><path fill="#fcfcfc" d="M 16.476562 11.949219 C 16.726562 11.949219 16.945312 12.035156 17.125 12.210938 C 17.304688 12.386719 17.394531 12.605469 17.394531 12.867188 C 17.394531 13.128906 17.304688 13.347656 17.125 13.523438 C 16.945312 13.699219 16.726562 13.785156 16.476562 13.785156 C 16.222656 13.785156 16.007812 13.699219 15.828125 13.523438 C 15.648438 13.347656 15.558594 13.128906 15.558594 12.867188 C 15.558594 12.605469 15.648438 12.386719 15.828125 12.210938 C 16.007812 12.035156 16.222656 11.949219 16.476562 11.949219 " fill-opacity="1" fill-rule="nonzero"/><path fill="#fcfcfc" d="M 22.972656 13.097656 C 22.613281 13 22.246094 12.949219 21.875 12.949219 C 21.667969 12.949219 21.460938 12.972656 21.25 13.023438 C 21.042969 13.074219 20.855469 13.152344 20.695312 13.261719 C 20.53125 13.371094 20.394531 13.511719 20.292969 13.679688 C 20.1875 13.851562 20.136719 14.054688 20.136719 14.296875 C 20.136719 14.667969 20.265625 14.933594 20.519531 15.089844 C 20.777344 15.25 21.066406 15.328125 21.382812 15.328125 C 21.734375 15.328125 22.050781 15.257812 22.34375 15.117188 C 22.632812 14.972656 22.84375 14.851562 22.972656 14.753906 Z M 19.414062 11.09375 C 19.5 10.757812 19.625 10.484375 19.78125 10.28125 C 19.941406 10.082031 20.125 9.925781 20.332031 9.824219 C 20.539062 9.71875 20.777344 9.652344 21.039062 9.625 C 21.300781 9.597656 21.578125 9.585938 21.875 9.585938 C 22.160156 9.585938 22.441406 9.617188 22.71875 9.675781 C 23 9.734375 23.25 9.835938 23.476562 9.980469 C 23.699219 10.121094 23.878906 10.308594 24.015625 10.546875 C 24.152344 10.78125 24.222656 11.066406 24.222656 11.40625 L 24.222656 14.441406 C 24.222656 14.652344 24.277344 14.835938 24.386719 14.992188 C 24.496094 15.152344 24.664062 15.230469 24.894531 15.230469 C 25.113281 15.230469 25.308594 15.167969 25.476562 15.042969 C 25.644531 14.917969 25.808594 14.792969 25.960938 14.671875 L 26.125 14.851562 C 26.015625 14.964844 25.886719 15.089844 25.738281 15.238281 C 25.59375 15.386719 25.4375 15.527344 25.273438 15.664062 C 25.109375 15.804688 24.941406 15.917969 24.769531 16.011719 C 24.601562 16.101562 24.433594 16.148438 24.269531 16.148438 C 24.160156 16.148438 24.046875 16.113281 23.925781 16.042969 C 23.804688 15.972656 23.6875 15.886719 23.574219 15.789062 C 23.457031 15.691406 23.351562 15.585938 23.253906 15.476562 C 23.15625 15.367188 23.066406 15.273438 22.992188 15.199219 C 22.640625 15.4375 22.246094 15.65625 21.808594 15.855469 C 21.371094 16.050781 20.945312 16.148438 20.53125 16.148438 C 20.300781 16.148438 20.078125 16.113281 19.863281 16.035156 C 19.652344 15.957031 19.460938 15.847656 19.296875 15.707031 C 19.132812 15.566406 19.003906 15.394531 18.90625 15.199219 C 18.804688 15 18.757812 14.777344 18.757812 14.523438 C 18.757812 14.078125 18.882812 13.71875 19.132812 13.449219 C 19.386719 13.183594 19.710938 12.976562 20.109375 12.835938 C 20.511719 12.691406 20.964844 12.597656 21.472656 12.546875 C 21.980469 12.5 22.492188 12.46875 23.007812 12.457031 L 23.007812 11.210938 C 23.007812 10.804688 22.882812 10.492188 22.628906 10.273438 C 22.378906 10.054688 22.0625 9.945312 21.679688 9.945312 C 21.394531 9.945312 21.167969 10.089844 21.003906 10.375 C 20.839844 10.65625 20.757812 10.980469 20.757812 11.339844 Z M 19.414062 11.09375 " fill-opacity="1" fill-rule="nonzero"/><path fill="#fcfcfc" d="M 25.910156 15.757812 C 26.292969 15.648438 26.648438 15.480469 26.96875 15.253906 C 27.292969 15.03125 27.597656 14.78125 27.890625 14.507812 C 28.179688 14.234375 28.460938 13.953125 28.734375 13.664062 C 29.007812 13.375 29.292969 13.101562 29.589844 12.851562 C 29.335938 12.578125 29.089844 12.285156 28.847656 11.972656 C 28.609375 11.660156 28.355469 11.367188 28.085938 11.085938 C 27.816406 10.808594 27.523438 10.566406 27.199219 10.363281 C 26.878906 10.164062 26.511719 10.035156 26.109375 9.980469 L 26.109375 9.78125 C 26.457031 9.816406 26.808594 9.835938 27.160156 9.839844 C 27.507812 9.84375 27.859375 9.847656 28.210938 9.847656 C 28.515625 9.847656 28.820312 9.84375 29.121094 9.839844 C 29.421875 9.835938 29.726562 9.816406 30.03125 9.78125 L 30.03125 9.996094 C 29.910156 10.019531 29.769531 10.074219 29.605469 10.160156 C 29.441406 10.246094 29.359375 10.367188 29.359375 10.519531 C 29.359375 10.609375 29.398438 10.730469 29.480469 10.890625 C 29.5625 11.050781 29.660156 11.214844 29.777344 11.382812 C 29.890625 11.550781 30.007812 11.710938 30.128906 11.859375 C 30.25 12.007812 30.347656 12.113281 30.425781 12.179688 C 30.535156 12.070312 30.65625 11.953125 30.785156 11.832031 C 30.917969 11.714844 31.039062 11.585938 31.15625 11.457031 C 31.269531 11.324219 31.367188 11.1875 31.449219 11.039062 C 31.53125 10.890625 31.574219 10.734375 31.574219 10.570312 C 31.574219 10.40625 31.5 10.28125 31.351562 10.191406 C 31.203125 10.105469 31.058594 10.039062 30.917969 9.996094 L 30.917969 9.78125 C 31.203125 9.816406 31.488281 9.835938 31.777344 9.839844 C 32.070312 9.84375 32.355469 9.847656 32.640625 9.847656 C 32.890625 9.847656 33.148438 9.84375 33.410156 9.839844 C 33.675781 9.835938 33.929688 9.816406 34.183594 9.78125 L 34.183594 9.980469 C 33.820312 10.046875 33.484375 10.171875 33.171875 10.355469 C 32.863281 10.542969 32.566406 10.757812 32.289062 11.003906 C 32.007812 11.25 31.738281 11.507812 31.476562 11.777344 C 31.210938 12.042969 30.949219 12.292969 30.6875 12.523438 C 30.894531 12.773438 31.121094 13.074219 31.367188 13.417969 C 31.613281 13.761719 31.886719 14.097656 32.179688 14.417969 C 32.476562 14.742188 32.804688 15.027344 33.164062 15.28125 C 33.527344 15.53125 33.925781 15.691406 34.363281 15.757812 L 34.363281 15.953125 C 34.011719 15.929688 33.664062 15.914062 33.320312 15.902344 C 32.976562 15.894531 32.628906 15.886719 32.277344 15.886719 C 31.917969 15.886719 31.558594 15.894531 31.195312 15.902344 C 30.835938 15.914062 30.472656 15.929688 30.113281 15.953125 L 30.113281 15.757812 C 30.199219 15.757812 30.300781 15.746094 30.410156 15.722656 C 30.519531 15.703125 30.621094 15.664062 30.71875 15.617188 C 30.820312 15.566406 30.902344 15.507812 30.964844 15.4375 C 31.03125 15.363281 31.066406 15.28125 31.066406 15.179688 C 31.066406 15.027344 31.019531 14.863281 30.925781 14.679688 C 30.832031 14.5 30.71875 14.320312 30.589844 14.140625 C 30.457031 13.960938 30.324219 13.785156 30.1875 13.613281 C 30.050781 13.445312 29.9375 13.292969 29.851562 13.164062 C 29.742188 13.261719 29.597656 13.394531 29.414062 13.566406 C 29.234375 13.734375 29.058594 13.914062 28.882812 14.105469 C 28.707031 14.296875 28.554688 14.492188 28.429688 14.6875 C 28.304688 14.886719 28.242188 15.066406 28.242188 15.230469 C 28.242188 15.328125 28.273438 15.414062 28.332031 15.484375 C 28.390625 15.554688 28.464844 15.609375 28.546875 15.648438 C 28.628906 15.6875 28.71875 15.714844 28.816406 15.730469 C 28.914062 15.746094 29.007812 15.757812 29.09375 15.757812 L 29.09375 15.953125 C 28.832031 15.929688 28.574219 15.914062 28.316406 15.902344 C 28.058594 15.894531 27.800781 15.886719 27.535156 15.886719 C 27.261719 15.886719 26.992188 15.894531 26.722656 15.902344 C 26.457031 15.914062 26.183594 15.929688 25.910156 15.953125 Z M 25.910156 15.757812 " fill-opacity="1" fill-rule="nonzero"/><path fill="#fcfcfc" d="M 35.972656 11.800781 C 35.972656 11.539062 35.964844 11.304688 35.945312 11.101562 C 35.929688 10.902344 35.882812 10.730469 35.800781 10.59375 C 35.71875 10.457031 35.59375 10.347656 35.429688 10.257812 C 35.265625 10.171875 35.042969 10.109375 34.757812 10.078125 L 34.757812 9.847656 L 37.25 9.683594 L 37.25 14.507812 C 37.25 14.78125 37.273438 15 37.316406 15.15625 C 37.359375 15.316406 37.433594 15.4375 37.539062 15.519531 C 37.644531 15.601562 37.777344 15.65625 37.941406 15.691406 C 38.105469 15.722656 38.308594 15.746094 38.546875 15.757812 L 38.546875 15.953125 C 38.164062 15.929688 37.78125 15.914062 37.390625 15.902344 C 37.003906 15.890625 36.617188 15.886719 36.234375 15.886719 C 35.980469 15.886719 35.734375 15.890625 35.496094 15.902344 C 35.253906 15.914062 35.007812 15.929688 34.757812 15.953125 L 34.757812 15.757812 C 34.976562 15.746094 35.160156 15.722656 35.316406 15.691406 C 35.46875 15.65625 35.59375 15.601562 35.691406 15.519531 C 35.792969 15.4375 35.863281 15.316406 35.90625 15.15625 C 35.949219 15 35.972656 14.78125 35.972656 14.507812 Z M 35.972656 11.800781 " fill-opacity="1" fill-rule="nonzero"/><path fill="#fcfcfc" d="M 39.367188 13.804688 L 39.597656 13.804688 C 39.75 14.03125 39.921875 14.257812 40.113281 14.476562 C 40.304688 14.695312 40.515625 14.890625 40.746094 15.066406 C 40.976562 15.242188 41.222656 15.382812 41.484375 15.492188 C 41.75 15.601562 42.027344 15.65625 42.324219 15.65625 C 42.464844 15.65625 42.609375 15.644531 42.757812 15.617188 C 42.90625 15.589844 43.039062 15.542969 43.160156 15.476562 C 43.28125 15.410156 43.378906 15.324219 43.453125 15.214844 C 43.53125 15.105469 43.570312 14.96875 43.570312 14.804688 C 43.570312 14.53125 43.46875 14.304688 43.265625 14.132812 C 43.0625 13.957031 42.816406 13.804688 42.519531 13.671875 C 42.222656 13.539062 41.898438 13.417969 41.542969 13.300781 C 41.1875 13.1875 40.863281 13.050781 40.566406 12.890625 C 40.269531 12.734375 40.023438 12.539062 39.820312 12.308594 C 39.617188 12.078125 39.515625 11.785156 39.515625 11.421875 C 39.515625 10.832031 39.699219 10.378906 40.066406 10.0625 C 40.433594 9.746094 40.894531 9.585938 41.453125 9.585938 C 41.867188 9.585938 42.269531 9.640625 42.660156 9.75 C 43.046875 9.859375 43.449219 9.925781 43.863281 9.945312 L 43.964844 11.6875 L 43.75 11.6875 C 43.640625 11.480469 43.503906 11.277344 43.339844 11.085938 C 43.175781 10.894531 42.992188 10.726562 42.789062 10.578125 C 42.585938 10.429688 42.371094 10.308594 42.140625 10.21875 C 41.914062 10.125 41.675781 10.078125 41.4375 10.078125 C 41.164062 10.078125 40.917969 10.136719 40.699219 10.257812 C 40.480469 10.378906 40.371094 10.597656 40.371094 10.914062 C 40.371094 11.144531 40.46875 11.332031 40.671875 11.480469 C 40.875 11.628906 41.125 11.765625 41.417969 11.890625 C 41.714844 12.015625 42.039062 12.140625 42.394531 12.261719 C 42.75 12.382812 43.078125 12.527344 43.371094 12.695312 C 43.667969 12.867188 43.917969 13.074219 44.121094 13.320312 C 44.320312 13.566406 44.421875 13.867188 44.421875 14.230469 C 44.421875 14.613281 44.359375 14.925781 44.234375 15.171875 C 44.109375 15.417969 43.9375 15.613281 43.71875 15.757812 C 43.5 15.898438 43.242188 16 42.953125 16.058594 C 42.664062 16.121094 42.355469 16.148438 42.027344 16.148438 C 41.765625 16.148438 41.511719 16.128906 41.273438 16.09375 C 41.03125 16.054688 40.804688 16.007812 40.589844 15.953125 C 40.378906 15.898438 40.179688 15.847656 39.992188 15.804688 C 39.804688 15.761719 39.640625 15.730469 39.5 15.707031 Z M 39.367188 13.804688 " fill-opacity="1" fill-rule="nonzero"/><path fill="#fcfcfc" d="M 3.53125 22.554688 C 3.265625 22.554688 3.035156 22.503906 2.84375 22.390625 C 2.648438 22.285156 2.503906 22.136719 2.394531 21.949219 C 2.292969 21.765625 2.242188 21.550781 2.242188 21.3125 C 2.242188 21.082031 2.300781 20.871094 2.417969 20.679688 C 2.53125 20.496094 2.691406 20.347656 2.886719 20.234375 C 3.085938 20.121094 3.300781 20.066406 3.542969 20.066406 C 3.851562 20.066406 4.105469 20.15625 4.308594 20.335938 C 4.511719 20.515625 4.652344 20.765625 4.726562 21.082031 L 2.800781 21.757812 L 2.671875 21.449219 L 4.253906 20.867188 L 4.140625 20.945312 C 4.09375 20.820312 4.015625 20.714844 3.914062 20.625 C 3.8125 20.535156 3.671875 20.484375 3.503906 20.484375 C 3.363281 20.484375 3.230469 20.523438 3.117188 20.589844 C 3.003906 20.65625 2.921875 20.753906 2.859375 20.871094 C 2.792969 20.992188 2.761719 21.125 2.761719 21.285156 C 2.761719 21.441406 2.792969 21.582031 2.859375 21.707031 C 2.925781 21.832031 3.023438 21.929688 3.140625 21.996094 C 3.257812 22.070312 3.390625 22.101562 3.542969 22.101562 C 3.644531 22.101562 3.746094 22.085938 3.839844 22.046875 C 3.9375 22.007812 4.027344 21.960938 4.113281 21.898438 L 4.355469 22.289062 C 4.230469 22.367188 4.101562 22.429688 3.960938 22.480469 C 3.8125 22.53125 3.671875 22.554688 3.53125 22.554688 Z M 3.53125 22.554688 " fill-opacity="1" fill-rule="nonzero"/><path fill="#fcfcfc" d="M 6.042969 22.550781 C 5.875 22.550781 5.714844 22.515625 5.558594 22.457031 C 5.398438 22.398438 5.269531 22.3125 5.167969 22.195312 L 5.394531 21.886719 C 5.488281 21.984375 5.589844 22.050781 5.691406 22.097656 C 5.792969 22.148438 5.894531 22.171875 5.996094 22.171875 C 6.070312 22.171875 6.144531 22.160156 6.207031 22.140625 C 6.269531 22.125 6.320312 22.089844 6.363281 22.046875 C 6.402344 22 6.421875 21.945312 6.421875 21.871094 C 6.421875 21.785156 6.394531 21.71875 6.34375 21.675781 C 6.285156 21.628906 6.21875 21.589844 6.132812 21.554688 C 6.046875 21.527344 5.957031 21.5 5.867188 21.472656 C 5.671875 21.410156 5.523438 21.320312 5.421875 21.207031 C 5.320312 21.09375 5.269531 20.953125 5.269531 20.789062 C 5.269531 20.667969 5.304688 20.550781 5.367188 20.445312 C 5.425781 20.335938 5.519531 20.246094 5.640625 20.179688 C 5.765625 20.109375 5.914062 20.082031 6.09375 20.078125 C 6.257812 20.082031 6.398438 20.097656 6.527344 20.136719 C 6.65625 20.179688 6.777344 20.246094 6.890625 20.335938 L 6.679688 20.65625 C 6.613281 20.589844 6.535156 20.539062 6.445312 20.503906 C 6.347656 20.472656 6.261719 20.449219 6.191406 20.445312 C 6.121094 20.445312 6.058594 20.453125 6.003906 20.476562 C 5.941406 20.5 5.894531 20.535156 5.855469 20.574219 C 5.824219 20.613281 5.804688 20.664062 5.804688 20.71875 C 5.800781 20.800781 5.828125 20.859375 5.878906 20.910156 C 5.933594 20.957031 6.003906 20.996094 6.089844 21.023438 C 6.171875 21.054688 6.257812 21.082031 6.34375 21.109375 C 6.453125 21.148438 6.554688 21.195312 6.648438 21.25 C 6.738281 21.308594 6.808594 21.375 6.867188 21.453125 C 6.921875 21.539062 6.953125 21.644531 6.953125 21.769531 C 6.953125 21.910156 6.917969 22.035156 6.851562 22.152344 C 6.78125 22.273438 6.679688 22.367188 6.550781 22.441406 C 6.414062 22.507812 6.246094 22.550781 6.042969 22.550781 Z M 6.042969 22.550781 " fill-opacity="1" fill-rule="nonzero"/><path fill="#fcfcfc" d="M 9.578125 22.277344 C 9.472656 22.363281 9.347656 22.429688 9.203125 22.480469 C 9.054688 22.53125 8.90625 22.554688 8.761719 22.554688 C 8.507812 22.554688 8.28125 22.503906 8.089844 22.402344 C 7.898438 22.300781 7.746094 22.160156 7.636719 21.972656 C 7.53125 21.792969 7.480469 21.574219 7.480469 21.324219 C 7.480469 21.074219 7.535156 20.859375 7.648438 20.679688 C 7.761719 20.496094 7.914062 20.351562 8.105469 20.25 C 8.292969 20.148438 8.496094 20.105469 8.710938 20.097656 C 8.894531 20.105469 9.066406 20.128906 9.210938 20.179688 C 9.359375 20.234375 9.488281 20.300781 9.597656 20.390625 L 9.332031 20.738281 C 9.261719 20.6875 9.183594 20.640625 9.082031 20.597656 C 8.988281 20.554688 8.875 20.535156 8.753906 20.535156 C 8.613281 20.535156 8.488281 20.566406 8.378906 20.636719 C 8.265625 20.707031 8.171875 20.804688 8.105469 20.921875 C 8.039062 21.042969 8.003906 21.175781 8.003906 21.324219 C 8.003906 21.472656 8.039062 21.605469 8.105469 21.726562 C 8.171875 21.847656 8.269531 21.945312 8.394531 22.011719 C 8.511719 22.085938 8.648438 22.121094 8.804688 22.121094 C 8.902344 22.121094 8.996094 22.101562 9.082031 22.074219 C 9.167969 22.046875 9.242188 22 9.308594 21.949219 Z M 9.578125 22.277344 " fill-opacity="1" fill-rule="nonzero"/><path fill="#fcfcfc" d="M 11.234375 22.554688 C 11.011719 22.554688 10.808594 22.507812 10.636719 22.414062 C 10.453125 22.316406 10.3125 22.183594 10.207031 21.996094 C 10.105469 21.816406 10.054688 21.59375 10.054688 21.328125 C 10.054688 21.070312 10.105469 20.84375 10.21875 20.652344 C 10.324219 20.464844 10.472656 20.320312 10.652344 20.21875 C 10.832031 20.117188 11.035156 20.066406 11.257812 20.066406 C 11.476562 20.066406 11.65625 20.117188 11.808594 20.210938 C 11.960938 20.3125 12.074219 20.433594 12.152344 20.566406 L 12.121094 20.652344 L 12.171875 20.160156 L 12.65625 20.160156 L 12.65625 22.5 L 12.132812 22.5 L 12.132812 21.886719 L 12.1875 22.023438 C 12.171875 22.0625 12.136719 22.109375 12.085938 22.164062 C 12.035156 22.226562 11.96875 22.285156 11.886719 22.347656 C 11.804688 22.40625 11.707031 22.453125 11.601562 22.492188 C 11.488281 22.539062 11.367188 22.554688 11.234375 22.554688 Z M 11.375 22.121094 C 11.503906 22.121094 11.617188 22.097656 11.722656 22.046875 C 11.828125 21.996094 11.917969 21.929688 11.984375 21.835938 C 12.050781 21.746094 12.101562 21.644531 12.132812 21.523438 L 12.132812 21.058594 C 12.097656 20.953125 12.046875 20.855469 11.972656 20.769531 C 11.898438 20.6875 11.808594 20.617188 11.703125 20.574219 C 11.59375 20.523438 11.480469 20.5 11.359375 20.5 C 11.214844 20.5 11.085938 20.535156 10.96875 20.601562 C 10.847656 20.667969 10.757812 20.765625 10.691406 20.882812 C 10.617188 21.003906 10.585938 21.144531 10.585938 21.300781 C 10.585938 21.453125 10.617188 21.59375 10.691406 21.71875 C 10.765625 21.84375 10.859375 21.9375 10.980469 22.011719 C 11.097656 22.085938 11.234375 22.121094 11.375 22.121094 Z M 11.375 22.121094 " fill-opacity="1" fill-rule="nonzero"/><path fill="#fcfcfc" d="M 14.949219 22.554688 C 14.769531 22.554688 14.601562 22.515625 14.4375 22.429688 C 14.273438 22.347656 14.148438 22.238281 14.058594 22.097656 L 14.09375 21.933594 L 14.09375 23.621094 L 13.566406 23.621094 L 13.566406 20.121094 L 14.023438 20.121094 L 14.09375 20.726562 L 14.035156 20.554688 C 14.148438 20.414062 14.289062 20.296875 14.464844 20.207031 C 14.640625 20.109375 14.832031 20.066406 15.046875 20.066406 C 15.265625 20.066406 15.464844 20.117188 15.640625 20.222656 C 15.816406 20.324219 15.949219 20.472656 16.058594 20.65625 C 16.160156 20.851562 16.210938 21.070312 16.210938 21.324219 C 16.210938 21.574219 16.152344 21.792969 16.039062 21.980469 C 15.933594 22.164062 15.78125 22.304688 15.59375 22.402344 C 15.402344 22.503906 15.1875 22.554688 14.949219 22.554688 Z M 14.847656 22.132812 C 14.996094 22.132812 15.136719 22.097656 15.261719 22.03125 C 15.386719 21.960938 15.480469 21.867188 15.558594 21.742188 C 15.632812 21.617188 15.671875 21.480469 15.671875 21.328125 C 15.671875 21.171875 15.632812 21.03125 15.566406 20.90625 C 15.492188 20.789062 15.402344 20.691406 15.285156 20.617188 C 15.164062 20.550781 15.03125 20.511719 14.882812 20.511719 C 14.746094 20.511719 14.625 20.539062 14.515625 20.589844 C 14.410156 20.640625 14.320312 20.714844 14.246094 20.804688 C 14.171875 20.894531 14.121094 21.003906 14.09375 21.125 L 14.09375 21.515625 C 14.117188 21.632812 14.160156 21.742188 14.226562 21.832031 C 14.300781 21.929688 14.390625 22 14.5 22.050781 C 14.605469 22.109375 14.71875 22.132812 14.847656 22.132812 Z M 14.847656 22.132812 " fill-opacity="1" fill-rule="nonzero"/><path fill="#fcfcfc" d="M 16.914062 20.160156 L 17.441406 20.160156 L 17.441406 22.5 L 16.914062 22.5 Z M 16.875 19.3125 C 16.875 19.230469 16.910156 19.160156 16.976562 19.105469 C 17.039062 19.050781 17.113281 19.019531 17.191406 19.019531 C 17.269531 19.019531 17.34375 19.050781 17.40625 19.105469 C 17.46875 19.160156 17.496094 19.230469 17.496094 19.3125 C 17.496094 19.398438 17.46875 19.472656 17.40625 19.523438 C 17.34375 19.578125 17.269531 19.609375 17.191406 19.609375 C 17.113281 19.609375 17.039062 19.578125 16.976562 19.523438 C 16.910156 19.464844 16.875 19.398438 16.875 19.3125 Z M 16.875 19.3125 " fill-opacity="1" fill-rule="nonzero"/><path fill="#fcfcfc" d="M 18.824219 20.160156 L 18.871094 20.726562 L 18.847656 20.640625 C 18.921875 20.464844 19.039062 20.332031 19.210938 20.222656 C 19.378906 20.121094 19.578125 20.070312 19.804688 20.070312 C 20.023438 20.070312 20.203125 20.132812 20.34375 20.261719 C 20.484375 20.390625 20.558594 20.5625 20.566406 20.769531 L 20.566406 22.5 L 20.035156 22.5 L 20.035156 20.953125 C 20.027344 20.828125 19.988281 20.726562 19.921875 20.648438 C 19.847656 20.566406 19.742188 20.523438 19.59375 20.523438 C 19.457031 20.523438 19.339844 20.5625 19.234375 20.636719 C 19.121094 20.707031 19.035156 20.816406 18.972656 20.945312 C 18.910156 21.074219 18.875 21.226562 18.875 21.402344 L 18.875 22.5 L 18.351562 22.5 L 18.351562 20.160156 Z M 18.824219 20.160156 " fill-opacity="1" fill-rule="nonzero"/><path fill="#fcfcfc" d="M 22.601562 23.660156 C 22.429688 23.660156 22.273438 23.636719 22.140625 23.597656 C 22.011719 23.558594 21.890625 23.503906 21.785156 23.429688 C 21.675781 23.355469 21.570312 23.277344 21.472656 23.191406 L 21.785156 22.832031 C 21.910156 22.945312 22.03125 23.035156 22.15625 23.101562 C 22.285156 23.164062 22.429688 23.199219 22.589844 23.199219 C 22.765625 23.199219 22.914062 23.164062 23.039062 23.109375 C 23.15625 23.050781 23.25 22.964844 23.3125 22.863281 C 23.375 22.761719 23.410156 22.644531 23.410156 22.507812 L 23.414062 21.878906 L 23.460938 21.980469 C 23.394531 22.140625 23.269531 22.277344 23.09375 22.390625 C 22.917969 22.5 22.703125 22.554688 22.457031 22.554688 C 22.242188 22.554688 22.042969 22.5 21.863281 22.390625 C 21.683594 22.285156 21.535156 22.132812 21.429688 21.945312 C 21.320312 21.765625 21.269531 21.550781 21.269531 21.320312 C 21.269531 21.074219 21.320312 20.855469 21.441406 20.667969 C 21.546875 20.484375 21.699219 20.335938 21.886719 20.230469 C 22.070312 20.121094 22.273438 20.066406 22.488281 20.066406 C 22.699219 20.066406 22.886719 20.105469 23.058594 20.1875 C 23.230469 20.273438 23.355469 20.382812 23.433594 20.511719 L 23.40625 20.613281 L 23.460938 20.160156 L 23.941406 20.160156 L 23.941406 22.515625 C 23.941406 22.722656 23.882812 22.914062 23.777344 23.089844 C 23.667969 23.265625 23.515625 23.402344 23.320312 23.503906 C 23.117188 23.605469 22.878906 23.660156 22.601562 23.660156 Z M 21.800781 21.300781 C 21.800781 21.453125 21.835938 21.59375 21.910156 21.71875 C 21.976562 21.84375 22.070312 21.9375 22.195312 22.011719 C 22.320312 22.085938 22.457031 22.121094 22.609375 22.121094 C 22.742188 22.121094 22.867188 22.089844 22.976562 22.039062 C 23.089844 21.988281 23.179688 21.921875 23.257812 21.832031 C 23.332031 21.742188 23.386719 21.640625 23.414062 21.527344 L 23.414062 21.0625 C 23.382812 20.953125 23.324219 20.855469 23.246094 20.769531 C 23.167969 20.6875 23.078125 20.617188 22.96875 20.574219 C 22.855469 20.523438 22.738281 20.5 22.609375 20.5 C 22.457031 20.5 22.320312 20.535156 22.195312 20.601562 C 22.070312 20.667969 21.976562 20.765625 21.910156 20.882812 C 21.835938 21.007812 21.800781 21.144531 21.800781 21.300781 Z M 21.800781 21.300781 " fill-opacity="1" fill-rule="nonzero"/><path fill="#fcfcfc" d="M 26.828125 22.5 L 26.828125 20.628906 L 26.425781 20.628906 L 26.425781 20.15625 L 26.828125 20.15625 L 26.828125 19.171875 C 26.828125 18.835938 26.902344 18.574219 27.058594 18.394531 C 27.210938 18.214844 27.4375 18.125 27.738281 18.125 C 27.816406 18.125 27.902344 18.132812 27.996094 18.15625 C 28.09375 18.179688 28.175781 18.214844 28.25 18.265625 L 28.023438 18.648438 C 27.992188 18.613281 27.957031 18.589844 27.917969 18.574219 C 27.871094 18.5625 27.832031 18.558594 27.789062 18.558594 C 27.652344 18.558594 27.546875 18.601562 27.464844 18.699219 C 27.394531 18.796875 27.351562 18.953125 27.351562 19.179688 L 27.351562 20.15625 L 28.023438 20.15625 L 28.023438 20.628906 L 27.351562 20.628906 L 27.351562 22.5 Z M 28.472656 18.125 L 29 18.125 L 29 22.5 L 28.472656 22.5 Z M 28.472656 18.125 " fill-opacity="1" fill-rule="nonzero"/><path fill="#fcfcfc" d="M 30.886719 22.554688 C 30.667969 22.554688 30.464844 22.507812 30.289062 22.414062 C 30.109375 22.316406 29.964844 22.183594 29.859375 21.996094 C 29.757812 21.816406 29.707031 21.59375 29.707031 21.328125 C 29.707031 21.070312 29.757812 20.84375 29.871094 20.652344 C 29.976562 20.464844 30.125 20.320312 30.304688 20.21875 C 30.484375 20.117188 30.6875 20.066406 30.910156 20.066406 C 31.128906 20.066406 31.308594 20.117188 31.460938 20.210938 C 31.613281 20.3125 31.726562 20.433594 31.808594 20.566406 L 31.773438 20.652344 L 31.824219 20.160156 L 32.308594 20.160156 L 32.308594 22.5 L 31.785156 22.5 L 31.785156 21.886719 L 31.839844 22.023438 C 31.824219 22.0625 31.789062 22.109375 31.738281 22.164062 C 31.6875 22.226562 31.621094 22.285156 31.542969 22.347656 C 31.457031 22.40625 31.359375 22.453125 31.253906 22.492188 C 31.140625 22.539062 31.023438 22.554688 30.886719 22.554688 Z M 31.027344 22.121094 C 31.15625 22.121094 31.269531 22.097656 31.378906 22.046875 C 31.480469 21.996094 31.570312 21.929688 31.636719 21.835938 C 31.707031 21.746094 31.757812 21.644531 31.785156 21.523438 L 31.785156 21.058594 C 31.75 20.953125 31.699219 20.855469 31.625 20.769531 C 31.554688 20.6875 31.460938 20.617188 31.355469 20.574219 C 31.25 20.523438 31.136719 20.5 31.011719 20.5 C 30.871094 20.5 30.738281 20.535156 30.621094 20.601562 C 30.503906 20.667969 30.414062 20.765625 30.34375 20.882812 C 30.273438 21.003906 30.238281 21.144531 30.238281 21.300781 C 30.238281 21.453125 30.273438 21.59375 30.34375 21.71875 C 30.417969 21.84375 30.515625 21.9375 30.632812 22.011719 C 30.75 22.085938 30.886719 22.121094 31.027344 22.121094 Z M 31.027344 22.121094 " fill-opacity="1" fill-rule="nonzero"/><path fill="#fcfcfc" d="M 33.445312 19.132812 L 33.976562 19.132812 L 33.976562 20.167969 L 34.617188 20.167969 L 34.617188 20.585938 L 33.976562 20.585938 L 33.976562 22.5 L 33.445312 22.5 L 33.445312 20.585938 L 33.019531 20.585938 L 33.019531 20.167969 L 33.445312 20.167969 Z M 33.445312 19.132812 " fill-opacity="1" fill-rule="nonzero"/><path fill="#fcfcfc" d="M 35.25 18.125 L 35.78125 18.125 L 35.78125 22.5 L 35.25 22.5 Z M 35.25 18.125 " fill-opacity="1" fill-rule="nonzero"/><path fill="#fcfcfc" d="M 37.664062 22.554688 C 37.445312 22.554688 37.242188 22.507812 37.066406 22.414062 C 36.886719 22.316406 36.742188 22.183594 36.636719 21.996094 C 36.535156 21.816406 36.484375 21.59375 36.484375 21.328125 C 36.484375 21.070312 36.535156 20.84375 36.648438 20.652344 C 36.753906 20.464844 36.902344 20.320312 37.082031 20.21875 C 37.261719 20.117188 37.464844 20.066406 37.6875 20.066406 C 37.90625 20.066406 38.085938 20.117188 38.238281 20.210938 C 38.390625 20.3125 38.503906 20.433594 38.585938 20.566406 L 38.550781 20.652344 L 38.601562 20.160156 L 39.085938 20.160156 L 39.085938 22.5 L 38.5625 22.5 L 38.5625 21.886719 L 38.617188 22.023438 C 38.601562 22.0625 38.566406 22.109375 38.515625 22.164062 C 38.464844 22.226562 38.398438 22.285156 38.320312 22.347656 C 38.234375 22.40625 38.136719 22.453125 38.03125 22.492188 C 37.917969 22.539062 37.800781 22.554688 37.664062 22.554688 Z M 37.804688 22.121094 C 37.933594 22.121094 38.046875 22.097656 38.15625 22.046875 C 38.257812 21.996094 38.347656 21.929688 38.414062 21.835938 C 38.484375 21.746094 38.535156 21.644531 38.5625 21.523438 L 38.5625 21.058594 C 38.527344 20.953125 38.476562 20.855469 38.402344 20.769531 C 38.328125 20.6875 38.238281 20.617188 38.132812 20.574219 C 38.023438 20.523438 37.914062 20.5 37.789062 20.5 C 37.648438 20.5 37.515625 20.535156 37.398438 20.601562 C 37.28125 20.667969 37.191406 20.765625 37.121094 20.882812 C 37.046875 21.003906 37.015625 21.144531 37.015625 21.300781 C 37.015625 21.453125 37.046875 21.59375 37.121094 21.71875 C 37.195312 21.84375 37.292969 21.9375 37.410156 22.011719 C 37.527344 22.085938 37.664062 22.121094 37.804688 22.121094 Z M 37.804688 22.121094 " fill-opacity="1" fill-rule="nonzero"/><path fill="#fcfcfc" d="M 40.472656 20.160156 L 40.515625 20.726562 L 40.496094 20.640625 C 40.566406 20.464844 40.6875 20.332031 40.855469 20.222656 C 41.027344 20.121094 41.222656 20.070312 41.449219 20.070312 C 41.667969 20.070312 41.851562 20.132812 41.992188 20.261719 C 42.132812 20.390625 42.207031 20.5625 42.210938 20.769531 L 42.210938 22.5 L 41.679688 22.5 L 41.679688 20.953125 C 41.675781 20.828125 41.636719 20.726562 41.566406 20.648438 C 41.492188 20.566406 41.386719 20.523438 41.238281 20.523438 C 41.105469 20.523438 40.984375 20.5625 40.878906 20.636719 C 40.765625 20.707031 40.679688 20.816406 40.617188 20.945312 C 40.558594 21.074219 40.523438 21.226562 40.523438 21.402344 L 40.523438 22.5 L 40 22.5 L 40 20.160156 Z M 40.472656 20.160156 " fill-opacity="1" fill-rule="nonzero"/><path fill="#fcfcfc" d="M 44.074219 22.554688 C 43.855469 22.554688 43.65625 22.503906 43.480469 22.398438 C 43.304688 22.296875 43.171875 22.148438 43.070312 21.957031 C 42.96875 21.769531 42.917969 21.550781 42.917969 21.296875 C 42.917969 21.042969 42.96875 20.820312 43.074219 20.636719 C 43.183594 20.449219 43.328125 20.308594 43.515625 20.210938 C 43.703125 20.117188 43.90625 20.066406 44.136719 20.066406 C 44.324219 20.066406 44.496094 20.105469 44.667969 20.183594 C 44.832031 20.261719 44.960938 20.371094 45.054688 20.511719 L 45.035156 20.699219 L 45.035156 18.125 L 45.558594 18.125 L 45.558594 22.5 L 45.027344 22.5 L 45.027344 21.917969 L 45.085938 22.0625 C 44.972656 22.210938 44.832031 22.324219 44.660156 22.414062 C 44.484375 22.507812 44.289062 22.554688 44.074219 22.554688 Z M 44.238281 22.101562 C 44.375 22.101562 44.496094 22.082031 44.605469 22.03125 C 44.710938 21.980469 44.800781 21.90625 44.875 21.816406 C 44.949219 21.730469 44.992188 21.625 45.027344 21.5 L 45.027344 21.058594 C 44.992188 20.945312 44.941406 20.84375 44.871094 20.757812 C 44.789062 20.675781 44.699219 20.605469 44.59375 20.554688 C 44.484375 20.511719 44.367188 20.484375 44.238281 20.484375 C 44.089844 20.484375 43.960938 20.523438 43.84375 20.589844 C 43.722656 20.65625 43.628906 20.753906 43.554688 20.871094 C 43.480469 20.992188 43.449219 21.132812 43.449219 21.289062 C 43.449219 21.441406 43.480469 21.578125 43.554688 21.703125 C 43.628906 21.828125 43.722656 21.921875 43.84375 21.996094 C 43.960938 22.070312 44.097656 22.101562 44.238281 22.101562 Z M 44.238281 22.101562 " fill-opacity="1" fill-rule="nonzero"/></svg>